{"glyphs":{"0":{"ha":943,"x_min":51,"x_max":883,"o":"m 103 163 l 51 181 l 51 1089 l 419 1089 q 424 1082 421 1089 q 429 1072 426 1075 q 434 1058 431 1068 q 438 1046 438 1049 q 439 1032 438 1042 q 442 1012 440 1022 q 444 992 443 1001 q 446 978 446 982 q 450 975 449 975 q 454 978 454 975 q 458 988 456 978 q 463 1003 461 997 q 466 1015 464 1006 q 472 1033 468 1024 q 477 1051 475 1043 q 481 1063 479 1060 q 482 1070 481 1065 q 485 1079 483 1075 q 489 1089 486 1085 l 592 1089 l 660 1029 q 686 1039 672 1033 q 709 1047 697 1043 q 729 1054 721 1051 q 738 1059 732 1056 q 746 1063 744 1063 q 751 1072 747 1065 q 754 1081 754 1079 q 758 1086 754 1082 q 763 1089 760 1088 l 883 1089 l 883 617 q 876 608 883 614 q 865 600 869 601 q 850 602 863 599 q 833 606 838 606 q 832 599 833 604 q 832 592 831 593 q 835 587 832 590 q 840 583 839 583 q 858 579 843 582 q 875 575 872 576 q 880 571 876 574 q 883 565 883 568 l 883 0 l 51 0 l 51 129 q 58 137 51 131 q 68 146 65 143 q 85 151 72 149 q 103 154 99 154 l 103 163 m 419 292 l 518 292 l 518 383 q 525 385 521 383 q 532 386 529 386 q 535 381 532 385 q 540 378 539 378 q 549 372 543 375 q 557 368 556 369 l 565 368 l 575 368 q 584 370 576 368 q 600 374 592 372 q 616 376 608 375 q 626 378 624 378 q 646 378 632 378 q 675 378 660 378 q 704 379 690 379 q 724 379 718 379 q 719 386 724 383 q 713 390 717 389 q 703 394 704 393 q 689 400 699 397 q 678 403 679 403 q 656 404 671 403 q 622 407 640 406 q 588 410 604 408 q 565 411 572 411 q 558 415 564 411 q 549 419 551 418 q 540 433 546 422 q 532 446 533 443 q 525 454 529 449 q 518 463 521 460 l 518 797 l 419 797 l 419 292 z "},"1":{"ha":583,"x_min":35,"x_max":524,"o":"m 35 674 l 35 956 l 99 956 l 99 1025 l 168 1025 l 168 1089 l 524 1089 l 524 857 l 515 849 q 501 848 511 849 q 481 846 492 847 q 460 843 469 844 q 446 840 450 842 q 431 833 443 839 q 413 824 418 826 q 403 814 406 821 l 403 810 l 403 806 q 424 805 408 806 q 455 803 439 804 q 485 800 471 801 q 507 797 500 799 q 517 793 510 796 q 524 789 524 790 l 524 -3 q 507 -3 519 -3 q 481 -2 494 -3 q 454 -1 467 -1 q 438 0 442 0 q 430 3 436 0 q 421 8 424 6 l 413 17 q 405 26 411 18 q 391 43 399 35 q 377 59 383 51 q 369 68 371 67 q 365 74 367 71 l 361 78 q 359 77 360 78 q 357 76 358 76 q 354 75 356 75 q 353 67 354 72 q 351 60 351 63 q 356 42 353 54 q 361 26 358 29 q 365 22 361 25 q 369 17 368 18 l 369 13 l 369 8 q 360 3 367 6 q 351 0 354 0 l 168 0 l 168 674 l 35 674 z "},"2":{"ha":969,"x_min":51,"x_max":917,"o":"m 51 60 q 65 61 56 60 q 85 64 75 63 q 106 67 96 65 q 119 68 115 68 q 128 72 122 69 q 138 78 135 75 q 146 93 140 81 q 154 111 151 106 q 155 115 154 113 q 156 119 156 118 q 155 125 156 122 q 154 129 154 128 q 137 116 150 126 q 119 103 124 106 q 102 94 115 100 q 86 86 89 88 q 82 85 83 85 l 78 85 q 72 85 75 85 q 68 86 69 86 q 58 90 65 86 q 51 94 51 93 l 51 142 l 119 142 q 128 150 122 142 q 138 163 135 158 q 141 174 138 165 q 146 189 144 183 q 150 206 147 193 q 154 222 153 219 q 153 227 154 224 q 153 232 153 231 l 146 232 q 140 222 144 229 q 132 206 136 214 q 124 190 128 197 q 119 181 121 183 q 116 175 119 178 q 111 171 113 172 q 92 167 108 171 q 68 163 75 164 l 51 163 l 51 588 l 150 588 l 150 690 l 549 690 l 549 801 l 419 801 q 415 806 418 801 q 411 814 413 811 q 411 822 411 815 q 411 836 411 829 q 411 849 411 843 q 411 857 411 856 q 408 862 411 858 q 403 865 404 865 q 399 875 401 868 q 394 883 396 882 q 386 888 393 885 q 378 892 379 890 q 372 900 375 893 q 368 908 369 907 q 365 913 368 910 q 360 917 361 917 q 351 930 358 919 q 343 943 344 940 q 335 952 340 946 q 326 964 331 958 q 317 978 321 969 l 308 978 q 313 960 310 974 q 317 943 315 947 q 322 938 318 942 q 326 935 325 935 q 330 926 326 933 q 335 917 333 919 q 339 913 336 914 l 343 908 q 342 896 343 906 q 343 883 342 886 q 356 870 344 881 q 368 857 367 860 q 374 849 371 854 q 378 840 378 843 q 378 823 378 836 q 379 806 379 810 l 51 806 l 51 1089 l 818 1089 l 818 990 l 917 990 l 917 797 q 903 790 917 796 q 883 781 890 783 q 866 775 879 778 q 849 772 853 772 l 849 751 q 866 753 853 751 q 883 754 879 756 q 891 751 885 754 q 900 746 897 749 q 905 742 901 744 q 908 738 908 739 q 914 728 911 735 q 917 721 917 722 l 917 501 l 818 501 l 818 399 l 411 399 l 411 288 l 917 288 l 917 0 l 51 0 l 51 60 l 51 60 z "},"3":{"ha":935,"x_min":51,"x_max":883,"o":"m 514 288 l 514 399 l 51 399 l 51 686 l 181 686 q 193 676 183 686 q 206 660 203 667 q 211 647 207 657 q 219 626 215 638 q 227 606 224 615 q 232 592 231 596 q 234 604 232 596 q 239 622 236 613 q 244 640 242 632 q 249 651 247 649 q 256 662 250 656 q 267 674 261 668 q 277 685 272 681 q 283 690 282 690 l 514 690 l 514 801 l 51 801 l 51 1097 l 785 1097 l 785 990 l 883 990 l 883 840 q 876 833 883 839 q 865 824 869 826 q 858 819 864 822 q 849 814 851 817 q 835 809 844 813 q 824 806 825 806 l 806 806 l 789 806 q 772 810 786 807 q 754 814 757 814 l 744 814 q 736 815 740 814 q 729 815 732 815 q 714 815 724 815 q 703 814 704 814 q 691 813 699 814 q 675 810 683 811 q 660 807 667 808 q 651 806 653 806 q 647 802 650 806 q 643 797 644 799 q 654 794 646 796 q 672 789 663 792 q 690 783 682 786 q 703 781 699 781 q 716 778 706 779 q 738 775 726 776 q 759 773 749 774 q 772 772 769 772 q 786 769 776 771 q 805 767 796 768 q 822 764 814 765 q 832 763 829 763 q 856 758 839 761 q 875 754 872 756 q 880 751 876 754 q 883 746 883 747 l 883 569 l 824 569 l 824 518 l 883 518 l 883 99 l 785 99 l 785 0 l 232 0 q 231 19 232 6 q 228 47 229 32 q 225 76 226 63 q 222 94 224 89 q 219 107 222 97 q 214 119 217 117 q 210 125 214 122 q 206 129 207 128 q 204 114 206 125 q 201 90 203 103 q 199 67 200 78 q 197 51 197 56 q 193 34 196 47 q 189 17 190 21 q 185 7 186 11 q 181 0 183 3 l 51 0 l 51 288 l 514 288 z "},"4":{"ha":926,"x_min":35,"x_max":867,"o":"m 651 335 l 661 343 l 626 343 q 605 344 619 343 q 575 347 590 346 q 547 350 560 349 q 532 351 535 351 q 517 356 526 353 q 507 360 507 358 q 501 379 504 364 q 497 399 497 394 l 35 399 l 35 643 q 38 648 35 644 q 43 651 40 651 q 60 652 46 653 q 78 651 75 651 q 82 654 79 651 q 86 660 85 657 l 88 664 q 86 667 88 664 l 86 668 q 64 672 81 669 q 43 678 47 675 q 38 681 40 678 q 35 686 35 685 l 35 1089 l 394 1089 l 394 864 q 390 865 393 864 q 386 865 388 865 q 376 871 383 867 q 360 879 369 875 q 344 888 351 883 q 335 892 336 892 q 325 891 332 892 q 309 888 318 890 q 292 885 300 886 q 283 883 285 883 q 266 881 276 882 q 244 878 256 879 q 225 876 233 876 q 215 875 217 875 q 192 874 208 875 q 158 874 176 874 q 124 874 140 874 q 103 875 108 875 q 113 865 106 868 q 125 861 115 864 q 138 857 135 858 q 149 856 142 857 q 165 853 157 854 q 180 850 174 851 q 189 849 186 849 q 219 847 197 849 q 267 844 242 846 q 313 842 292 843 q 343 840 335 840 l 399 789 l 399 694 l 501 694 l 501 1089 l 867 1089 l 867 0 l 643 0 q 637 3 643 0 q 622 10 631 6 q 606 19 614 14 q 592 26 597 24 q 579 35 589 28 q 567 43 569 42 q 560 42 564 43 q 556 42 557 42 q 557 29 556 39 q 558 17 558 19 q 554 7 557 14 q 549 0 551 0 l 507 0 l 507 335 l 651 335 z "},"5":{"ha":978,"x_min":51,"x_max":917,"o":"m 540 288 l 540 399 l 150 399 l 150 501 l 51 501 l 51 746 q 54 751 51 747 q 60 754 57 754 q 75 758 63 756 q 94 763 88 761 q 119 768 100 765 q 146 772 139 771 q 160 774 149 772 q 184 776 171 775 q 208 779 197 778 q 222 781 219 781 q 235 784 225 781 q 249 789 246 788 q 266 793 253 790 q 283 797 279 796 l 283 806 q 278 807 283 806 q 264 810 272 808 q 247 813 256 811 q 232 814 238 814 q 219 815 229 814 q 201 815 208 815 q 184 815 194 815 q 171 814 174 814 q 163 813 169 814 q 150 810 157 811 q 137 807 143 808 q 129 806 131 806 q 109 809 126 806 q 86 814 92 813 q 77 818 83 815 q 68 824 71 821 q 64 827 67 824 q 60 832 61 831 q 54 841 57 835 q 51 849 51 847 l 51 1089 l 917 1089 l 917 801 l 419 801 l 419 690 l 643 690 q 647 679 644 688 q 651 668 650 671 q 656 665 653 668 q 660 660 660 661 q 664 646 661 656 q 669 626 667 636 q 674 606 672 615 q 678 592 676 596 q 681 604 678 594 q 686 617 685 614 q 696 642 689 625 q 703 660 703 658 q 717 676 707 667 q 729 686 726 686 l 818 686 l 818 588 l 917 588 l 917 99 l 818 99 l 818 0 l 738 0 q 733 3 736 0 q 729 8 731 6 q 724 17 726 11 q 719 26 721 24 q 715 43 718 29 q 711 60 713 57 q 710 75 711 64 q 707 99 708 86 q 704 122 706 111 q 703 138 703 133 l 694 129 q 690 116 693 126 q 686 103 686 106 q 685 83 686 97 q 682 51 683 68 q 679 20 681 35 q 678 0 678 6 l 335 0 q 327 6 333 0 q 313 19 321 11 q 297 37 306 28 q 283 51 289 46 q 274 64 281 54 q 265 78 268 74 q 256 96 263 83 q 249 111 250 108 q 246 125 247 115 q 243 146 244 135 q 241 167 242 157 q 240 181 240 176 q 235 176 239 179 q 232 171 232 174 q 226 150 229 167 q 222 129 222 133 l 222 17 q 219 13 222 15 q 214 8 217 10 q 205 3 211 6 q 197 0 199 0 l 51 0 l 51 288 l 540 288 z "},"6":{"ha":935,"x_min":51,"x_max":883,"o":"m 101 17 q 102 22 101 19 q 103 26 103 25 q 106 34 103 28 q 111 43 108 40 q 119 56 113 46 q 129 68 126 67 q 134 78 131 71 q 138 86 138 85 l 138 181 q 132 167 135 178 q 129 154 129 157 q 126 142 128 151 q 120 120 124 132 q 115 99 117 108 q 111 86 113 89 q 107 78 111 85 q 97 63 103 71 q 86 47 92 54 q 78 35 81 39 q 69 26 75 32 q 60 17 63 19 q 56 15 57 15 q 53 14 54 14 l 51 14 l 51 694 q 61 706 51 696 q 78 721 71 715 q 85 725 79 722 q 94 729 92 728 q 115 734 100 731 q 146 742 129 738 q 177 749 163 746 q 197 754 192 753 l 206 763 q 185 764 200 763 q 154 767 171 765 q 123 769 138 768 q 103 772 108 771 q 80 775 96 772 q 60 781 64 778 q 54 784 57 781 q 51 789 51 788 l 51 1089 l 197 1089 q 208 1079 199 1089 q 222 1063 218 1069 q 233 1049 226 1058 q 240 1038 240 1039 l 240 789 l 257 814 q 258 837 257 821 q 261 871 260 853 q 264 904 263 889 q 265 926 265 919 q 269 939 265 929 q 274 951 274 949 q 274 969 274 953 q 275 994 275 986 q 274 1019 275 1003 q 274 1038 274 1036 q 270 1055 274 1040 q 265 1072 267 1069 q 265 1080 265 1074 q 264 1089 264 1086 l 883 1089 l 883 801 l 419 801 l 419 690 l 883 690 l 883 0 l 729 0 q 725 22 728 6 q 719 43 722 39 q 717 47 719 44 q 711 51 714 50 l 710 51 q 707 53 708 51 q 706 52 706 53 q 704 51 706 51 l 703 51 q 699 38 701 49 q 694 26 696 28 q 690 17 693 24 q 686 8 688 10 q 684 6 685 7 q 682 3 683 4 q 678 0 681 1 l 111 0 q 107 3 110 0 q 103 8 104 6 q 101 11 101 10 l 101 17 m 419 292 l 514 292 l 514 394 l 419 394 l 419 292 z "},"7":{"ha":917,"x_min":26,"x_max":858,"o":"m 26 801 l 26 1089 l 858 1089 l 858 857 l 850 849 q 836 848 846 849 q 815 846 826 847 q 794 843 804 844 q 781 840 785 842 q 765 833 778 839 q 747 824 753 826 q 738 814 740 821 l 738 810 l 738 806 q 758 805 743 806 q 789 803 772 804 q 820 800 806 801 q 840 797 835 799 q 851 793 844 796 q 858 789 858 790 l 858 -3 q 842 -3 854 -3 q 815 -2 829 -3 q 789 -1 801 -1 q 772 0 776 0 q 765 3 771 0 q 756 8 758 6 l 747 17 q 738 26 744 18 q 725 43 732 35 q 712 59 718 51 q 704 68 706 67 q 699 74 701 71 q 694 78 696 78 q 693 77 693 78 q 692 76 693 76 q 689 75 690 75 q 688 67 689 72 q 686 60 686 63 q 690 42 688 54 q 694 26 693 29 l 704 17 l 704 13 l 704 8 q 695 3 701 6 q 686 0 689 0 l 493 0 l 493 801 l 26 801 z "},"8":{"ha":943,"x_min":51,"x_max":883,"o":"m 189 343 q 176 347 186 344 q 163 351 165 350 q 149 354 160 351 q 124 360 138 357 q 100 365 111 363 q 86 368 89 367 q 65 385 78 372 q 51 403 51 399 l 51 518 l 111 518 l 111 569 l 51 569 l 51 1089 l 883 1089 l 883 569 l 824 569 l 824 518 l 883 518 l 883 0 l 264 0 q 265 13 264 3 q 265 26 265 22 q 270 38 267 28 q 274 51 274 49 q 274 71 274 53 q 275 100 275 89 q 274 131 275 110 q 274 154 274 151 q 273 176 274 160 q 271 210 272 193 q 268 244 269 228 q 265 265 267 260 q 262 282 265 268 q 257 300 258 296 q 253 309 257 303 q 249 317 250 315 l 249 94 q 246 79 249 92 q 240 60 243 67 q 236 51 239 57 q 232 43 233 44 q 221 31 228 39 q 207 17 214 24 q 194 5 200 10 q 189 0 189 0 l 51 0 l 51 308 q 58 313 51 310 q 68 317 65 315 q 78 318 69 317 q 94 322 86 319 q 110 325 103 324 q 119 326 118 326 q 133 329 124 326 q 154 335 143 332 q 175 340 165 338 q 189 343 185 342 m 419 292 l 514 292 l 514 394 l 419 394 l 419 292 m 419 694 l 518 694 l 518 742 l 686 742 q 665 749 681 744 q 643 754 649 754 q 630 756 640 754 q 608 758 619 757 q 587 761 597 760 q 575 763 576 763 q 559 765 568 764 q 540 768 550 765 q 518 772 529 769 l 518 797 l 419 797 l 419 694 z "},"9":{"ha":943,"x_min":51,"x_max":883,"o":"m 514 288 l 514 399 l 51 399 l 51 1089 l 206 1089 q 210 1067 207 1083 q 214 1046 213 1050 l 222 1038 q 225 1036 224 1036 l 228 1036 l 231 1036 q 232 1038 232 1036 q 236 1051 233 1040 q 240 1063 239 1061 q 244 1072 240 1065 q 249 1081 247 1079 q 253 1086 249 1082 q 257 1089 254 1088 l 824 1089 q 828 1086 825 1089 q 832 1081 831 1083 l 832 1072 l 832 1063 q 828 1055 832 1061 q 824 1046 825 1049 q 814 1033 821 1043 q 806 1021 807 1022 q 800 1010 803 1017 q 797 1003 797 1004 l 797 908 q 802 922 799 911 q 806 935 806 932 q 808 947 806 938 q 814 969 811 957 q 819 990 817 981 q 824 1003 822 1000 q 828 1011 824 1004 q 838 1026 832 1018 q 849 1042 843 1035 q 857 1054 854 1050 q 866 1063 860 1057 q 875 1072 872 1069 q 879 1073 876 1072 q 883 1074 882 1074 l 883 394 q 874 383 883 393 q 857 368 864 374 q 849 364 856 367 q 840 360 843 361 q 820 355 835 358 q 789 347 806 351 q 758 340 772 343 q 738 335 743 336 l 729 326 q 749 325 735 326 q 781 322 764 324 q 812 319 797 321 q 832 317 826 318 q 854 313 838 317 q 875 308 871 310 q 880 305 876 308 q 883 300 883 301 l 883 0 l 738 0 q 726 10 736 0 q 711 26 717 19 q 701 40 708 31 q 694 51 694 50 l 694 300 l 678 275 q 676 252 678 268 q 674 218 675 236 q 671 184 672 200 q 668 163 669 168 q 664 150 668 160 q 660 138 660 140 l 660 94 l 660 51 q 661 45 660 50 q 664 35 663 40 q 667 24 665 29 q 668 17 668 18 q 670 8 669 14 q 671 0 671 3 l 51 0 l 51 288 l 514 288 m 419 694 l 514 694 l 514 797 l 419 797 l 419 694 z "}," ":{"ha":694,"x_min":0,"x_max":0,"o":""}," ":{"ha":694,"x_min":0,"x_max":0,"o":""},"B":{"ha":943,"x_min":51,"x_max":883,"o":"m 197 343 q 185 347 194 344 q 171 351 175 350 q 157 354 168 351 q 133 360 146 357 q 108 365 119 363 q 94 368 97 367 l 60 403 q 54 412 57 406 q 51 419 51 418 l 51 1089 l 883 1089 l 883 569 l 789 569 l 789 518 l 883 518 l 883 0 l 272 0 q 273 13 272 3 q 274 26 274 22 q 279 38 275 28 q 283 51 283 49 l 283 100 l 283 154 q 282 176 283 160 q 279 210 281 193 q 276 244 278 228 q 274 265 275 260 q 271 282 274 268 q 265 300 268 296 q 262 309 265 303 q 257 317 258 315 l 257 94 q 254 79 257 92 q 249 60 251 67 q 244 51 247 57 q 240 43 242 44 q 229 31 236 39 q 215 17 222 24 q 203 5 208 10 q 197 0 197 0 l 51 0 l 51 308 q 61 313 51 310 q 78 317 71 315 q 87 318 79 317 q 103 322 94 319 q 119 325 111 324 q 129 326 126 326 q 143 329 133 326 q 163 335 153 332 q 183 340 174 338 q 197 343 193 342 m 411 292 l 524 292 l 524 394 l 411 394 l 411 292 m 411 694 l 528 694 l 528 742 l 694 742 q 674 749 690 744 q 651 754 657 754 q 639 756 649 754 q 617 758 629 757 q 596 761 606 760 q 583 763 586 763 q 567 765 576 764 q 549 768 557 765 q 528 772 539 769 l 528 797 l 411 797 l 411 694 z "},"c":{"ha":986,"x_min":51,"x_max":943,"o":"m 119 506 q 108 508 117 506 q 90 514 99 511 q 72 519 81 517 q 60 524 63 522 q 54 526 57 524 q 51 532 51 529 l 51 1089 l 943 1089 l 943 801 l 407 801 l 407 703 q 384 716 401 706 q 360 729 367 726 l 353 729 l 343 729 q 333 728 340 729 q 317 725 326 726 q 301 722 308 724 q 292 721 293 721 q 278 718 288 719 q 260 715 269 717 q 243 713 251 714 q 232 711 235 711 l 228 711 l 222 711 q 207 713 218 711 q 184 715 196 714 q 161 718 172 717 q 146 721 150 719 l 138 711 q 141 707 138 710 q 146 703 144 704 q 161 699 149 703 q 181 694 174 696 q 192 693 185 694 q 208 690 200 692 q 223 688 217 689 q 232 686 229 686 q 257 685 239 686 q 295 682 275 683 q 334 679 315 681 q 360 678 353 678 l 407 635 l 407 288 l 943 288 l 943 0 l 719 0 q 712 3 718 0 q 703 8 706 6 q 694 17 700 11 q 686 26 689 24 q 685 40 686 31 q 682 60 683 49 q 679 81 681 71 q 678 94 678 90 q 674 104 676 97 q 668 111 671 111 q 665 113 668 113 q 658 114 661 114 q 654 113 657 114 q 651 111 651 113 l 626 0 l 51 0 l 51 446 q 58 460 51 447 q 68 481 65 474 q 73 486 71 483 q 78 489 75 489 q 98 493 82 490 q 119 497 114 496 l 119 506 z "},"D":{"ha":978,"x_min":51,"x_max":917,"o":"m 818 1089 l 818 990 l 917 990 l 917 524 q 896 519 913 522 q 875 514 879 517 q 860 510 869 513 q 849 506 850 507 l 847 503 l 847 499 q 849 497 847 497 q 853 492 850 494 q 857 489 856 489 q 874 489 860 488 q 892 489 889 490 q 907 476 897 486 q 917 463 917 465 l 917 99 l 818 99 l 818 0 l 343 0 q 339 26 342 7 q 335 51 336 44 q 331 67 333 54 q 326 86 328 81 q 321 101 324 92 q 317 111 318 111 q 314 113 317 111 q 313 112 313 113 q 311 111 313 111 l 308 111 q 304 108 307 111 q 300 103 301 104 q 299 89 300 99 q 296 69 297 79 q 293 49 294 58 q 292 35 292 39 q 289 26 292 32 q 283 17 286 19 q 279 13 282 15 q 274 8 276 10 q 265 3 271 6 q 257 0 258 0 l 51 0 l 51 1089 l 818 1089 m 411 292 l 561 292 l 561 626 q 565 633 563 629 q 570 638 568 636 q 575 643 572 640 q 588 657 578 647 q 600 668 597 667 q 609 674 603 671 q 617 678 615 676 q 643 679 625 678 q 682 682 661 681 q 721 685 703 683 q 746 686 739 686 q 771 690 751 686 q 797 694 790 693 q 810 699 800 696 q 824 703 821 701 l 832 711 q 833 715 832 714 q 833 717 833 715 q 804 717 825 717 q 760 719 783 718 q 715 720 736 719 q 686 721 694 721 q 676 722 683 721 q 660 725 668 724 q 644 728 651 726 q 635 729 636 729 l 619 729 l 608 729 q 602 724 607 728 q 592 715 597 719 q 581 707 586 711 q 575 703 576 703 q 568 705 572 703 q 561 707 564 707 l 561 797 l 411 797 l 411 292 z "},"E":{"ha":926,"x_min":51,"x_max":875,"o":"m 51 240 q 65 242 56 240 q 85 244 75 243 q 106 247 96 246 q 119 249 115 249 q 144 253 125 250 q 171 257 164 256 q 193 261 176 258 q 214 265 210 264 l 51 285 l 51 746 q 54 751 51 747 q 60 754 57 754 q 75 758 63 756 q 94 763 88 761 q 119 768 100 765 q 146 772 139 771 q 160 773 149 772 q 184 775 171 774 q 208 778 197 776 q 222 781 219 779 q 232 784 225 781 q 240 789 239 788 q 261 793 244 790 q 283 797 278 796 l 283 806 q 278 807 283 806 q 264 810 272 808 q 247 813 256 811 q 232 814 238 814 q 203 815 224 814 q 159 815 182 815 q 115 815 136 815 q 86 814 94 814 q 77 818 83 815 q 68 824 71 821 q 64 827 67 824 q 60 832 61 831 q 54 841 57 835 q 51 849 51 847 l 51 1089 l 875 1089 l 875 801 l 411 801 l 411 690 l 626 690 q 639 678 629 690 q 651 660 649 667 q 656 647 653 656 q 661 626 658 638 q 666 606 664 615 q 668 592 668 596 q 673 606 669 596 q 681 626 676 615 q 688 647 685 638 q 694 660 692 657 q 707 676 697 667 q 719 686 717 686 l 875 686 l 875 399 l 411 399 l 411 288 l 875 288 l 875 0 l 729 0 q 725 3 728 0 q 719 8 722 6 q 715 17 718 11 q 711 26 713 24 q 708 47 711 28 q 703 78 704 67 q 701 89 703 81 q 699 107 700 97 q 696 125 697 117 q 694 138 694 133 q 690 133 693 136 q 686 129 686 131 q 681 113 685 126 q 678 94 678 99 q 675 76 676 89 q 672 47 674 63 q 669 19 671 32 q 668 0 668 6 l 335 0 q 324 7 333 0 q 308 17 314 14 q 305 21 308 18 q 300 26 301 24 q 286 44 296 32 q 274 60 276 57 q 267 72 271 64 q 260 89 264 81 q 252 103 256 97 q 249 111 249 110 q 246 135 247 118 q 243 172 244 153 q 241 208 242 190 q 240 232 240 225 q 236 212 239 226 q 231 181 233 197 q 226 149 228 164 q 222 129 224 135 l 222 26 l 197 0 l 51 0 l 51 240 l 51 240 z "},"F":{"ha":917,"x_min":51,"x_max":875,"o":"m 875 1089 l 875 806 l 660 806 l 660 875 q 656 878 658 875 q 651 883 653 882 q 647 892 650 885 q 643 900 644 899 q 635 904 642 901 q 626 908 628 907 q 621 917 624 911 q 617 926 618 924 l 608 935 q 600 948 607 938 q 592 960 593 958 q 584 969 589 964 q 575 981 579 975 q 565 994 569 986 l 557 994 q 561 977 558 990 q 565 960 564 964 q 570 956 567 960 q 575 951 574 953 q 578 943 575 950 q 583 935 582 936 q 588 931 583 932 l 592 926 q 592 913 593 924 q 592 900 590 903 q 604 887 593 897 q 617 875 615 876 q 623 866 619 872 q 626 857 626 860 l 626 832 l 626 814 l 608 801 l 411 801 l 411 690 l 875 690 l 875 403 l 615 403 q 616 412 615 406 q 617 419 617 418 q 622 438 618 424 q 630 467 625 451 q 638 497 635 483 q 643 514 642 511 q 644 518 643 515 q 644 524 644 521 q 644 528 644 525 q 643 532 643 531 q 629 519 639 529 q 617 506 619 510 q 606 485 614 500 q 590 453 599 469 q 575 420 582 436 q 565 399 568 404 l 407 399 l 407 0 l 51 0 l 51 1089 l 875 1089 z "},"g":{"ha":1021,"x_min":51,"x_max":978,"o":"m 111 524 q 94 526 108 524 q 78 532 81 529 q 70 535 75 533 q 61 538 65 536 q 51 540 56 539 l 51 1089 l 978 1089 l 978 801 l 407 801 l 407 717 q 399 718 403 717 q 386 721 392 718 q 373 728 383 721 q 360 738 363 736 q 355 740 357 739 q 350 743 353 742 q 343 746 346 744 q 333 744 340 746 q 317 742 326 743 q 301 739 308 740 q 292 738 293 738 q 275 735 285 736 q 256 732 265 733 q 240 730 247 731 q 232 729 232 729 q 212 728 226 729 q 181 728 197 728 q 149 728 164 728 q 129 729 135 729 q 132 724 129 726 q 138 721 135 721 q 150 716 140 718 q 163 711 160 714 q 172 708 165 710 q 186 706 179 707 q 199 703 193 704 q 206 703 204 703 q 235 701 214 703 q 278 699 256 700 q 322 696 301 697 q 351 694 343 694 q 360 686 354 692 q 374 674 367 681 q 386 660 381 667 q 394 651 392 654 q 398 647 396 649 q 403 642 400 644 q 407 635 406 638 l 407 294 q 462 294 422 294 q 547 292 501 293 q 631 292 592 292 q 686 292 671 292 q 699 293 689 292 q 720 296 708 294 q 742 299 732 297 q 754 300 751 300 l 772 300 l 789 300 q 804 299 793 300 q 828 296 815 297 q 851 293 840 294 q 865 292 861 292 l 892 317 l 849 317 q 838 318 846 317 q 819 322 829 319 q 799 325 808 324 q 789 326 790 326 q 770 328 783 326 q 742 331 757 329 q 713 333 726 332 q 694 335 700 335 l 694 489 l 978 489 l 978 0 l 738 0 q 731 3 738 0 q 717 10 725 6 q 700 19 708 14 q 686 26 692 24 q 673 35 683 28 q 660 43 663 42 q 654 42 658 43 q 649 42 650 42 q 651 29 649 39 q 651 17 653 19 q 647 7 650 14 q 643 0 644 0 l 51 0 l 51 481 q 54 489 51 483 q 60 497 57 494 q 68 502 61 499 q 78 506 75 506 q 94 505 81 507 q 111 503 108 503 l 111 524 z "},"H":{"ha":994,"x_min":51,"x_max":935,"o":"m 386 1089 l 394 1081 q 397 1065 396 1078 q 397 1044 397 1051 q 397 1033 397 1040 q 397 1017 397 1025 q 395 1002 396 1008 q 394 994 394 996 q 392 988 394 993 q 386 978 389 983 q 381 967 383 972 q 378 960 378 961 q 376 958 376 960 l 376 956 l 376 953 q 378 951 376 951 q 388 946 379 949 q 399 943 396 943 l 399 694 l 588 694 l 588 1089 l 935 1089 l 935 351 l 857 351 q 870 342 860 349 q 883 335 881 336 q 891 332 885 335 q 905 326 897 329 q 919 321 913 324 q 926 317 925 318 q 931 313 928 315 q 935 308 935 310 l 935 0 l 781 0 q 774 14 781 4 q 763 26 767 24 l 757 26 q 751 27 754 26 q 747 28 749 28 q 742 27 744 28 q 736 26 739 26 l 729 26 q 722 21 728 25 q 708 13 715 17 q 694 4 700 8 q 686 0 688 0 q 667 -3 681 -1 q 638 -6 653 -4 q 610 -8 624 -7 q 592 -8 597 -8 l 592 214 q 599 229 592 217 q 608 249 606 242 q 613 253 610 250 q 617 257 615 257 q 635 267 622 260 q 651 275 649 274 q 672 280 657 276 q 703 288 686 283 q 734 295 719 292 q 754 300 749 299 l 608 300 l 588 317 l 588 394 l 399 394 l 399 0 l 146 0 l 146 119 q 141 116 144 119 q 138 111 138 113 q 128 95 135 108 q 119 78 122 82 q 115 65 118 75 q 111 51 113 54 q 110 44 111 50 q 107 30 108 38 q 104 16 106 22 q 103 8 103 10 q 95 4 101 7 q 86 0 89 1 q 69 -2 82 -1 q 51 -3 56 -3 l 51 1089 l 386 1089 z "},"I":{"ha":454,"x_min":51,"x_max":394,"o":"m 394 1089 l 394 857 q 388 853 394 856 q 378 849 381 850 q 365 847 375 849 q 343 844 354 846 q 322 842 332 843 q 308 840 311 840 q 293 833 306 839 q 274 824 281 826 q 269 819 272 822 q 265 814 267 817 l 265 810 l 265 806 q 285 805 271 806 q 317 803 300 804 q 348 800 333 801 q 368 797 363 799 q 377 794 371 797 q 386 789 383 792 q 389 787 388 788 q 392 785 390 786 q 394 781 393 783 l 394 0 l 300 0 q 292 3 299 0 q 283 8 286 6 q 279 13 282 10 q 274 17 276 15 q 266 26 272 18 q 253 43 260 35 q 240 59 246 51 q 232 68 233 67 q 226 74 229 71 q 222 78 224 78 l 217 75 q 215 67 217 72 q 214 60 214 63 q 218 42 215 54 q 222 26 221 29 l 232 17 l 232 13 l 232 8 q 223 3 229 6 q 214 0 217 0 l 51 0 l 51 1089 l 394 1089 z "},"J":{"ha":900,"x_min":26,"x_max":840,"o":"m 224 283 q 227 271 225 279 q 232 253 229 263 q 237 235 235 243 q 240 222 239 226 q 246 208 243 218 q 249 197 249 199 q 261 181 251 194 q 275 163 271 168 l 292 146 q 301 145 293 146 q 314 144 310 144 q 324 145 317 144 q 335 146 332 146 q 317 162 331 149 q 301 181 304 175 q 296 188 300 182 q 288 201 292 194 q 280 215 283 208 q 275 222 276 221 q 266 231 274 225 q 258 240 258 238 q 257 243 257 242 l 257 247 l 257 253 q 258 257 257 254 q 263 276 260 264 q 267 288 265 288 l 493 288 l 493 1089 l 840 1089 l 840 754 l 832 746 q 818 745 828 746 q 798 743 808 744 q 778 740 788 742 q 764 738 768 739 q 749 730 761 736 q 729 721 736 724 q 725 717 728 719 q 721 711 722 714 q 719 710 719 711 l 719 707 l 719 706 q 721 703 719 704 q 741 702 726 703 q 772 700 756 701 q 803 697 789 699 q 824 694 818 696 q 834 690 828 693 q 840 686 840 688 l 840 0 l 26 0 l 26 283 l 224 283 z "},"K":{"ha":951,"x_min":51,"x_max":900,"o":"m 101 17 q 102 22 101 19 q 103 26 103 25 q 106 34 103 28 q 111 43 108 40 q 119 56 113 46 q 129 68 126 67 q 134 78 131 71 q 138 86 138 85 l 138 181 q 132 167 135 178 q 129 154 129 157 q 126 142 128 151 q 120 120 124 132 q 115 99 117 108 q 111 86 113 89 q 107 78 111 85 q 97 63 103 71 q 86 47 92 54 q 78 35 81 39 q 69 26 75 32 q 60 17 63 19 q 56 15 57 15 q 53 14 54 14 l 51 14 l 51 694 q 61 706 51 696 q 78 721 71 715 q 85 725 79 722 q 94 729 92 728 q 115 734 100 731 q 146 742 129 738 q 177 749 163 746 q 197 754 192 753 l 206 763 q 185 764 200 763 q 154 767 171 765 q 123 769 138 768 q 103 772 108 771 q 80 775 96 772 q 60 781 64 778 q 54 784 57 781 q 51 789 51 788 l 51 1089 l 197 1089 q 208 1079 199 1089 q 222 1063 218 1069 q 233 1049 226 1058 q 240 1038 240 1039 l 240 789 l 257 814 q 258 837 257 821 q 261 871 260 853 q 264 904 263 889 q 265 926 265 919 q 269 939 265 929 q 274 951 274 949 q 274 969 274 953 q 275 994 275 986 q 274 1019 275 1003 q 274 1038 274 1036 q 270 1055 274 1040 q 265 1072 267 1069 q 265 1080 265 1074 q 264 1089 264 1086 l 399 1089 l 399 806 l 450 806 l 450 956 l 553 956 l 553 1089 l 900 1089 l 900 707 l 785 707 l 785 604 l 678 604 q 674 597 676 601 q 668 592 671 593 q 643 576 663 588 q 617 561 624 564 l 674 561 l 674 485 l 785 485 l 785 382 l 900 382 l 900 0 l 729 0 q 725 22 728 6 q 719 43 722 39 q 717 47 719 44 q 711 51 714 50 l 710 51 q 707 53 708 51 q 706 52 706 53 q 704 51 706 51 l 703 51 q 699 38 701 49 q 694 26 696 28 q 690 17 693 24 q 686 8 688 10 q 684 6 685 7 q 682 3 683 4 q 678 0 681 1 l 553 0 l 553 133 l 450 133 l 450 283 l 399 283 l 399 0 l 111 0 q 107 3 110 0 q 103 8 104 6 q 101 11 101 10 l 101 17 l 101 17 z "},"L":{"ha":900,"x_min":51,"x_max":865,"o":"m 171 706 q 172 707 171 707 q 171 710 172 707 l 171 711 q 167 717 171 714 q 163 721 164 719 q 144 730 157 724 q 129 738 131 736 q 115 740 125 739 q 94 743 106 742 q 74 745 83 744 q 60 746 64 746 l 51 754 l 51 1089 l 399 1089 l 399 288 l 626 288 q 631 275 629 281 q 635 257 633 261 l 635 247 l 635 240 q 626 231 633 238 q 617 222 619 225 q 613 215 617 221 q 604 201 608 208 q 597 188 600 194 q 592 181 593 182 q 576 162 589 175 q 557 146 563 149 q 568 145 560 146 q 579 144 576 144 q 590 145 582 144 q 600 146 599 146 q 608 153 601 146 q 617 163 614 160 q 632 181 622 168 q 643 197 642 194 q 647 208 644 199 q 651 222 650 218 q 655 235 653 226 q 660 253 657 243 q 665 271 663 263 q 668 283 668 279 l 865 283 l 865 0 l 51 0 l 51 686 q 58 690 51 688 q 68 694 65 693 q 88 697 74 696 q 119 700 103 699 q 151 702 136 701 q 171 703 165 703 l 171 706 z "},"m":{"ha":1200,"x_min":51,"x_max":1140,"o":"m 51 871 l 51 1089 l 399 1089 l 399 956 l 501 956 l 501 806 l 686 806 q 689 819 686 808 q 694 832 692 829 l 697 832 l 703 832 q 728 831 711 832 q 760 828 744 829 q 790 825 776 826 q 806 824 803 824 q 818 822 810 824 q 836 819 826 821 q 854 817 846 818 q 865 814 863 815 q 871 793 868 810 q 875 772 874 776 q 876 760 875 769 q 879 742 878 751 q 882 723 881 732 q 883 711 883 714 q 888 702 883 708 q 896 694 893 696 l 896 814 l 922 814 q 925 819 922 817 q 926 824 928 821 q 918 827 925 824 q 908 832 911 831 q 896 836 906 833 q 883 840 886 839 q 864 846 876 843 q 849 849 851 849 q 832 850 844 849 q 806 853 819 851 q 781 856 793 854 q 763 857 768 857 q 750 870 760 860 q 738 883 740 881 q 728 888 735 885 q 719 892 722 890 q 707 894 717 893 q 694 894 697 894 l 694 956 l 793 956 l 793 1089 l 1140 1089 l 1140 643 l 908 643 l 935 626 q 956 625 940 626 q 990 622 972 624 q 1024 619 1008 621 q 1046 617 1039 618 q 1059 613 1049 617 q 1072 608 1069 610 q 1086 607 1076 608 q 1106 604 1096 606 q 1126 601 1117 603 q 1140 600 1136 600 l 1140 0 l 1025 0 l 1025 51 l 1003 51 q 995 29 1001 46 q 986 8 989 13 q 982 3 985 6 q 978 0 979 0 l 793 0 l 793 463 l 725 463 l 725 335 l 467 335 l 467 463 l 399 463 l 399 232 q 387 223 399 229 q 368 214 375 217 l 357 214 l 343 214 q 314 219 333 217 q 292 222 294 222 q 283 231 289 224 q 274 240 276 238 q 266 254 271 244 q 256 274 261 264 q 247 294 251 285 q 240 308 242 304 q 235 301 238 307 q 232 292 232 294 q 235 277 232 290 q 240 257 238 264 q 244 244 240 254 q 249 232 247 235 q 253 223 250 229 q 257 214 257 217 l 274 197 q 280 197 274 197 q 294 194 286 196 q 312 192 303 193 q 326 189 321 190 q 337 188 328 189 q 356 185 346 186 q 374 182 365 183 q 386 181 383 181 q 392 176 389 179 q 394 171 394 174 q 395 160 394 169 q 396 147 396 151 q 395 142 396 144 q 394 136 394 139 l 394 129 q 380 124 393 126 q 360 119 367 121 l 338 119 l 317 119 q 301 128 314 121 q 283 138 289 135 q 276 144 282 139 q 262 154 269 149 q 248 165 254 160 q 240 171 242 169 q 238 171 239 172 q 233 169 236 169 q 232 162 233 167 q 232 154 231 157 q 240 137 233 150 q 249 119 246 124 q 257 110 251 117 q 265 103 263 104 q 290 100 267 103 q 326 94 313 97 q 340 93 331 94 q 360 90 350 92 q 381 88 371 89 q 394 86 390 86 l 394 0 l 51 0 l 51 814 q 58 818 51 815 q 68 824 65 821 q 85 830 72 825 q 112 840 97 835 q 139 851 126 846 q 154 857 151 856 q 163 864 157 860 q 171 871 169 868 l 51 871 z "},"n":{"ha":1029,"x_min":51,"x_max":968,"o":"m 111 154 q 113 157 111 154 l 113 158 q 111 163 113 163 q 101 167 111 164 q 86 171 92 169 q 69 176 82 174 q 51 181 56 179 l 51 1089 l 399 1089 l 399 913 l 536 913 l 536 729 l 621 729 l 621 875 l 635 875 q 655 874 639 875 q 690 870 671 872 q 725 867 708 868 q 746 865 742 865 q 764 866 751 865 q 790 867 776 867 q 817 867 804 867 q 836 868 831 868 q 839 871 836 869 q 840 875 842 872 q 829 878 839 875 q 814 883 819 882 q 799 888 808 885 q 779 894 789 892 q 762 898 769 896 q 754 900 754 900 q 739 901 751 900 q 712 904 726 903 q 685 907 697 906 q 668 908 672 908 q 656 913 665 910 q 643 917 646 915 q 633 926 639 919 q 626 935 626 933 l 626 1089 l 968 1089 l 968 0 l 772 0 q 763 7 769 0 q 754 17 757 14 q 750 26 753 19 q 746 35 747 32 q 741 51 744 38 q 738 68 738 64 q 736 80 738 71 q 733 99 735 89 q 731 117 732 108 q 729 129 729 126 q 724 155 726 139 q 719 171 721 171 l 711 171 q 710 144 711 164 q 707 103 708 125 q 704 63 706 82 q 703 35 703 43 q 699 13 703 26 q 694 0 696 0 l 621 0 l 621 176 l 489 176 l 489 257 q 495 265 489 258 q 506 275 501 271 q 515 280 508 276 q 524 283 521 283 l 694 283 q 682 292 692 286 q 668 300 672 299 q 655 301 665 300 q 631 304 644 303 q 603 307 617 306 q 583 308 590 308 q 565 309 581 308 q 543 310 550 310 q 521 309 535 310 q 506 308 507 308 q 495 306 503 308 q 485 300 488 303 l 485 360 l 399 360 l 399 0 l 51 0 l 51 129 q 58 137 51 131 q 68 146 65 143 q 90 151 74 149 q 111 154 106 154 z "},"o":{"ha":1054,"x_min":51,"x_max":994,"o":"m 111 154 q 113 157 111 154 l 113 158 q 111 163 113 163 q 101 167 111 164 q 86 171 92 169 q 69 176 82 174 q 51 181 56 179 l 51 1089 l 463 1089 q 472 1082 465 1089 q 481 1072 478 1075 q 485 1060 482 1069 q 489 1046 488 1050 q 490 1035 489 1043 q 493 1016 492 1026 q 496 997 494 1006 q 497 986 497 988 q 500 981 497 985 q 506 978 503 978 l 510 976 l 513 976 q 514 978 514 976 q 517 992 515 982 q 523 1012 519 1001 q 528 1032 526 1022 q 532 1046 531 1042 q 536 1067 533 1050 q 540 1089 539 1083 l 668 1089 l 738 1029 q 749 1030 739 1028 q 774 1036 760 1032 q 801 1045 788 1040 q 824 1054 815 1050 q 831 1060 825 1056 q 842 1071 836 1065 q 851 1081 847 1076 q 857 1089 856 1086 l 994 1089 l 994 617 l 986 608 q 977 603 983 606 q 968 600 971 600 q 956 600 967 599 q 943 600 946 601 q 938 596 942 599 q 935 592 935 593 q 943 587 938 590 q 951 583 949 583 q 969 579 954 582 q 986 575 983 576 q 992 571 989 574 q 994 565 994 568 l 994 0 l 51 0 l 51 129 q 58 137 51 131 q 68 146 65 143 q 90 151 74 149 q 111 154 106 154 m 403 292 l 647 292 l 647 383 q 653 385 649 383 q 660 386 658 386 q 677 377 663 385 q 694 368 692 369 l 710 368 l 729 368 q 738 370 731 368 q 754 374 746 372 q 770 376 763 375 q 781 378 778 378 q 808 378 789 378 q 851 379 828 379 q 893 380 874 379 q 921 381 913 381 q 917 386 921 383 q 909 390 915 388 q 900 394 903 393 q 878 399 894 396 q 857 403 861 403 q 827 404 849 403 q 781 407 806 406 q 733 410 756 408 q 703 411 711 411 l 647 463 l 647 797 l 403 797 l 403 292 z "},"P":{"ha":926,"x_min":51,"x_max":883,"o":"m 197 343 q 185 347 194 344 q 171 351 175 350 q 157 354 168 351 q 133 360 146 357 q 108 365 119 363 q 94 368 97 367 l 60 403 q 54 412 57 406 q 51 419 51 418 l 51 1089 l 883 1089 l 883 313 l 407 313 l 407 0 l 272 0 q 273 13 272 3 q 274 26 274 22 q 279 38 275 28 q 283 51 283 49 l 283 100 l 283 154 q 282 176 283 160 q 279 210 281 193 q 276 244 278 228 q 274 265 275 260 q 271 282 274 268 q 265 300 268 296 q 262 309 265 303 q 257 317 258 315 l 257 94 q 254 79 257 92 q 249 60 251 67 q 244 51 247 57 q 240 43 242 44 q 229 31 236 39 q 215 17 222 24 q 203 5 208 10 q 197 0 197 0 l 51 0 l 51 308 q 61 313 51 310 q 78 317 71 315 q 87 318 79 317 q 103 322 94 319 q 119 325 111 324 q 129 326 126 326 q 143 329 133 326 q 163 335 153 332 q 183 340 174 338 q 197 343 193 342 m 411 575 l 528 575 l 528 742 l 694 742 q 674 749 690 744 q 651 754 657 754 q 639 756 649 754 q 617 758 629 757 q 596 761 606 760 q 583 763 586 763 q 567 765 576 764 q 549 768 557 765 q 528 772 539 769 l 528 832 l 411 832 l 411 575 z "},"q":{"ha":1054,"x_min":51,"x_max":994,"o":"m 51 -4 l 51 128 q 58 137 51 131 q 68 146 65 143 q 90 151 74 149 q 111 154 106 154 q 113 158 113 154 q 111 163 113 163 q 101 167 111 164 q 86 171 92 169 q 69 176 82 172 q 51 179 56 179 l 51 1089 l 463 1089 q 472 1082 465 1089 q 481 1071 478 1075 q 485 1059 482 1068 q 489 1046 488 1050 q 490 1034 489 1043 q 493 1015 492 1025 q 496 997 494 1006 q 497 986 497 988 q 500 981 497 983 q 506 976 503 978 l 510 976 l 514 976 q 517 990 515 981 q 523 1011 519 1000 q 528 1032 526 1022 q 532 1046 531 1042 q 536 1067 533 1050 q 540 1089 539 1083 l 668 1089 l 738 1028 q 749 1029 739 1026 q 774 1036 760 1032 q 801 1045 788 1040 q 824 1054 815 1050 q 841 1070 828 1057 q 857 1089 854 1083 l 994 1089 l 994 617 q 992 613 993 614 q 986 608 988 608 q 977 603 983 606 q 968 600 971 600 q 956 599 967 599 q 943 600 946 600 q 938 596 942 599 q 935 592 935 593 q 943 586 938 589 q 951 582 949 583 q 969 579 954 582 q 986 574 983 576 q 992 570 989 574 q 994 565 994 567 l 994 -86 l 647 -86 l 647 -4 l 51 -4 m 403 292 l 647 292 l 647 383 q 653 385 649 383 q 660 386 658 386 q 677 376 663 383 q 694 368 692 369 l 710 368 l 729 368 q 738 369 731 368 q 754 372 746 371 q 770 375 763 374 q 781 376 778 376 q 808 377 789 376 q 851 378 828 378 q 893 380 874 379 q 921 381 913 381 q 919 382 919 381 q 918 384 918 383 q 917 386 918 385 q 909 390 915 388 q 900 394 903 393 q 878 399 894 396 q 857 403 861 401 q 827 404 849 403 q 781 407 806 406 q 733 410 756 408 q 703 411 711 411 l 647 463 l 647 797 l 403 797 l 403 292 z "},"R":{"ha":943,"x_min":51,"x_max":883,"o":"m 197 343 q 185 347 194 344 q 171 351 175 350 q 157 354 168 351 q 133 360 146 357 q 108 365 119 363 q 94 368 97 367 l 60 403 q 54 412 57 406 q 51 419 51 418 l 51 1089 l 883 1089 l 883 467 l 789 467 l 789 415 l 883 415 l 883 0 l 528 0 l 528 394 l 407 394 l 407 0 l 272 0 q 273 13 272 3 q 274 26 274 22 q 279 38 275 28 q 283 51 283 49 l 283 100 l 283 154 q 282 176 283 160 q 279 210 281 193 q 276 244 278 228 q 274 265 275 260 q 271 282 274 268 q 265 300 268 296 q 262 309 265 303 q 257 317 258 315 l 257 94 q 254 79 257 92 q 249 60 251 67 q 244 51 247 57 q 240 43 242 44 q 229 31 236 39 q 215 17 222 24 q 203 5 208 10 q 197 0 197 0 l 51 0 l 51 308 q 61 313 51 310 q 78 317 71 315 q 87 318 79 317 q 103 322 94 319 q 119 325 111 324 q 129 326 126 326 q 143 329 133 326 q 163 335 153 332 q 183 340 174 338 q 197 343 193 342 m 411 694 l 528 694 l 528 742 l 694 742 q 674 749 690 744 q 651 754 657 754 q 639 756 649 754 q 617 758 629 757 q 596 761 606 760 q 583 763 586 763 q 567 765 576 764 q 549 768 557 765 q 528 772 539 769 l 528 797 l 411 797 l 411 694 z "},"S":{"ha":960,"x_min":51,"x_max":908,"o":"m 557 288 l 557 399 l 51 399 l 51 746 q 54 751 51 747 q 60 754 57 754 q 75 758 63 756 q 94 763 88 761 q 119 768 100 765 q 146 772 139 771 q 160 773 149 772 q 184 775 171 774 q 208 778 197 776 q 222 781 219 779 q 232 784 225 781 q 240 789 239 788 q 261 793 244 790 q 283 797 278 796 l 283 806 q 278 807 283 806 q 264 810 272 808 q 247 813 256 811 q 232 814 238 814 q 203 815 224 814 q 159 815 182 815 q 115 815 136 815 q 86 814 94 814 q 77 818 83 815 q 68 824 71 821 q 64 827 67 824 q 60 832 61 831 q 54 841 57 835 q 51 849 51 847 l 51 1089 l 908 1089 l 908 801 l 403 801 l 403 690 l 635 690 q 638 679 635 688 q 643 668 642 671 q 648 665 644 668 q 651 660 651 661 q 656 646 653 656 q 661 626 658 636 q 666 606 664 615 q 668 592 668 596 q 673 606 669 596 q 681 626 676 615 q 688 647 685 638 q 694 660 692 657 q 707 676 697 667 q 719 686 717 686 l 908 686 l 908 0 l 729 0 q 725 3 728 0 q 719 8 722 6 q 715 17 718 11 q 711 26 713 24 q 708 47 711 28 q 703 78 704 67 q 701 89 703 81 q 699 107 700 97 q 696 125 697 117 q 694 138 694 133 q 690 133 693 136 q 686 129 686 131 q 681 113 685 126 q 678 94 678 99 q 675 76 676 89 q 672 47 674 63 q 669 19 671 32 q 668 0 668 6 l 335 0 q 324 7 333 0 q 308 17 314 14 q 305 21 308 18 q 300 26 301 24 q 286 44 296 32 q 274 60 276 57 q 267 72 271 64 q 260 89 264 81 q 252 103 256 97 q 249 111 249 110 q 246 135 247 118 q 243 172 244 153 q 241 208 242 190 q 240 232 240 225 q 236 212 239 226 q 231 181 233 197 q 226 149 228 164 q 222 129 224 135 l 222 26 l 197 0 l 51 0 l 51 288 l 557 288 z "},"T":{"ha":917,"x_min":43,"x_max":875,"o":"m 343 626 q 344 631 344 626 l 344 632 q 343 635 344 633 q 332 638 342 635 q 318 643 322 642 q 298 648 313 644 q 279 651 283 651 l 279 801 l 43 801 l 43 1089 l 875 1089 l 875 806 l 789 806 q 784 815 788 806 q 781 832 781 825 q 781 840 781 833 q 781 853 781 846 q 781 867 781 861 q 781 875 781 874 l 776 879 q 772 883 772 881 q 768 892 771 885 q 764 900 765 899 q 754 904 761 901 q 746 908 747 907 q 742 917 744 911 q 738 926 739 924 q 733 930 736 926 q 729 935 729 933 q 721 948 728 938 q 711 960 714 958 q 704 969 708 964 q 696 981 700 975 q 686 994 690 986 l 678 994 q 681 977 678 990 q 686 960 685 964 q 691 956 688 960 q 694 951 694 953 q 699 943 696 950 q 703 935 703 936 l 711 926 q 712 913 713 924 q 711 900 711 903 q 724 887 714 897 q 738 875 735 876 q 743 866 740 872 q 746 857 746 860 q 749 829 747 850 q 750 801 750 808 l 639 801 l 639 0 l 567 0 q 563 26 565 7 q 557 51 560 44 q 553 67 557 54 q 549 86 550 81 q 544 101 547 92 q 540 111 542 111 l 538 113 q 535 112 536 113 q 533 111 535 111 l 532 111 q 527 108 531 111 q 524 103 524 104 q 522 89 524 99 q 519 69 521 79 q 517 49 518 58 q 515 35 515 39 q 512 26 515 32 q 506 17 508 19 q 502 13 506 15 q 497 8 499 10 q 488 3 494 6 q 481 0 482 0 l 283 0 l 283 600 q 290 609 283 603 q 300 617 296 615 q 322 623 306 619 q 343 626 338 626 z "},"u":{"ha":994,"x_min":51,"x_max":935,"o":"m 103 524 q 85 526 99 524 q 68 532 72 529 q 58 536 65 533 q 51 540 51 539 l 51 1089 l 394 1089 l 394 717 q 385 718 392 717 q 378 721 379 719 q 365 728 375 721 q 351 738 354 736 q 347 740 349 739 q 342 743 344 742 q 335 746 338 744 q 324 744 332 746 q 308 742 317 743 q 292 739 300 740 q 283 738 285 738 q 267 735 276 736 q 247 732 257 733 q 231 730 238 731 q 222 729 224 729 q 202 728 217 729 q 171 728 188 728 q 140 728 154 728 q 119 729 125 729 q 124 724 121 726 q 129 721 126 721 q 140 716 131 718 q 154 711 150 714 q 164 708 157 710 q 178 706 171 707 q 190 703 185 704 q 197 703 196 703 q 226 701 206 703 q 269 699 246 700 q 314 696 293 697 q 343 694 335 694 q 352 686 346 692 q 365 674 358 681 q 377 660 371 667 q 386 651 383 654 q 390 647 388 649 q 394 642 392 644 q 399 635 397 638 l 399 292 l 588 292 l 588 335 l 738 335 l 746 343 l 711 343 q 690 344 704 343 q 661 347 676 346 q 633 350 646 349 q 617 351 621 351 q 601 356 611 353 q 592 360 592 358 l 592 1089 l 935 1089 l 935 0 l 729 0 q 707 10 726 0 q 678 26 688 19 q 665 35 675 28 q 651 43 654 42 q 646 42 650 43 q 640 42 642 42 q 642 29 640 39 q 643 17 644 19 q 639 7 642 14 q 635 0 636 0 l 51 0 l 51 497 q 58 502 51 499 q 68 506 65 506 q 85 505 72 507 q 103 503 99 503 l 103 524 z "},"V":{"ha":943,"x_min":43,"x_max":892,"o":"m 125 167 l 125 364 l 43 364 l 43 497 l 63 497 q 67 506 63 500 q 69 514 71 513 q 56 520 67 517 q 43 524 46 524 l 43 1089 l 390 1089 l 390 292 l 544 292 l 544 1089 l 678 1089 q 690 1079 681 1089 q 703 1063 700 1069 q 710 1051 706 1058 q 718 1035 714 1043 q 726 1019 722 1026 q 729 1011 729 1013 q 732 988 731 1004 q 735 951 733 971 q 737 915 736 932 q 738 892 738 899 q 741 912 739 897 q 746 943 743 926 q 751 974 749 960 q 754 994 754 989 q 755 1013 754 1000 q 756 1042 756 1026 q 758 1070 757 1057 q 758 1089 758 1083 l 892 1089 l 892 883 l 764 857 q 777 856 768 857 q 797 853 786 854 q 818 850 808 851 q 832 849 828 849 q 849 846 839 847 q 868 843 858 844 q 892 840 879 842 l 892 364 l 810 364 l 810 167 l 690 167 l 690 -3 q 665 -3 683 -3 q 628 -2 647 -3 q 591 -1 608 -1 q 567 0 574 0 q 554 3 564 0 q 540 8 544 6 l 524 17 q 510 26 521 19 q 497 35 500 32 q 492 33 496 35 q 486 32 488 32 q 488 20 486 29 q 489 8 490 11 q 485 3 488 6 q 481 0 482 0 l 244 0 l 244 167 l 125 167 z "},"w":{"ha":1200,"x_min":51,"x_max":1140,"o":"m 171 218 q 163 225 169 221 q 154 232 157 229 q 139 238 151 233 q 112 249 126 243 q 85 259 97 254 q 68 265 72 264 q 58 271 63 268 q 51 275 54 272 l 51 1089 l 399 1089 l 399 626 l 467 626 l 467 754 l 725 754 l 725 626 l 793 626 l 793 1089 l 978 1089 q 982 1086 979 1089 q 986 1081 985 1083 q 995 1059 989 1075 q 1003 1038 1001 1043 l 1025 1038 l 1025 1089 l 1140 1089 l 1140 489 q 1126 488 1136 489 q 1106 485 1117 486 q 1086 482 1096 483 q 1072 481 1076 481 q 1059 476 1069 479 q 1046 472 1049 472 q 1024 469 1039 471 q 990 467 1008 468 q 956 464 972 465 q 935 463 940 463 l 908 446 l 1140 446 l 1140 0 l 793 0 l 793 133 l 694 133 l 694 194 q 707 195 697 194 q 719 197 717 196 q 728 201 722 199 q 738 206 735 204 q 750 219 740 208 q 763 232 760 229 q 781 233 768 232 q 806 236 793 235 q 832 239 819 238 q 849 240 844 240 q 864 243 851 240 q 883 249 876 246 q 896 253 886 250 q 908 257 906 257 q 918 262 911 258 q 926 265 925 265 q 925 270 928 267 q 922 275 922 274 l 896 275 l 896 394 q 888 387 893 393 q 883 378 883 381 q 882 366 883 375 q 879 347 881 357 q 876 328 878 338 q 875 317 875 319 q 871 295 874 311 q 865 275 868 279 q 854 272 863 274 q 836 269 846 271 q 818 267 826 268 q 806 265 810 265 q 790 264 803 265 q 760 261 776 263 q 728 258 744 260 q 703 257 711 257 l 697 257 l 694 257 q 689 270 692 260 q 686 283 686 281 l 501 283 l 501 133 l 399 133 l 399 0 l 51 0 l 51 218 l 171 218 z "},"x":{"ha":943,"x_min":50,"x_max":883,"o":"m 163 493 l 163 596 l 51 596 l 51 711 q 64 713 56 711 q 82 715 72 714 q 100 718 92 717 q 111 721 108 719 q 120 724 114 721 q 129 729 126 726 q 137 744 131 732 q 146 763 143 757 q 147 767 146 764 q 147 772 147 769 q 147 776 147 774 q 146 781 146 779 q 128 767 142 778 q 111 754 115 757 q 94 745 107 751 q 78 738 81 739 q 74 737 76 738 q 68 736 71 736 l 63 736 q 60 738 61 736 q 54 741 57 738 q 51 746 51 744 q 51 755 51 747 q 50 767 50 763 q 51 778 50 769 q 51 789 51 786 q 64 790 56 789 q 82 792 72 790 q 100 794 92 793 q 111 797 108 796 q 120 805 114 799 q 129 814 126 811 q 132 825 129 815 q 138 840 135 835 q 142 858 139 844 q 146 875 144 872 q 145 879 146 876 q 144 883 144 882 l 138 883 q 132 873 136 881 q 124 857 128 865 q 116 842 119 849 q 111 832 113 835 q 108 827 111 831 q 103 824 104 824 q 84 819 100 822 q 60 814 68 817 l 51 814 l 51 1089 l 407 1089 l 407 754 l 528 754 l 528 1089 l 883 1089 l 883 596 l 772 596 l 772 493 l 883 493 l 883 0 l 719 0 l 711 8 q 696 38 706 18 q 686 60 686 57 q 683 84 685 67 q 680 120 681 101 q 678 156 679 139 q 678 181 678 174 q 674 160 676 175 q 668 129 671 146 q 663 98 665 113 q 660 78 661 83 q 660 69 660 75 q 660 56 660 63 q 660 42 660 49 q 660 35 660 36 q 656 13 660 26 q 651 0 653 0 l 532 0 l 532 189 q 544 192 539 190 q 556 194 550 193 q 565 197 561 196 q 583 201 571 199 q 609 206 596 203 q 635 210 622 208 q 651 214 647 213 q 638 215 647 214 q 617 218 628 217 q 597 221 607 219 q 583 222 588 222 q 567 224 576 224 q 549 228 557 225 q 528 232 539 229 l 528 335 l 407 335 l 407 0 l 51 0 l 51 493 l 163 493 z "},"y":{"ha":917,"x_min":43,"x_max":875,"o":"m 158 493 l 158 596 l 43 596 l 43 690 l 197 690 q 176 698 193 693 q 154 703 160 703 q 142 704 151 703 q 120 707 132 706 q 99 710 108 708 q 86 711 89 711 q 60 717 76 714 q 43 721 43 719 l 43 1089 l 399 1089 l 399 694 l 515 694 q 516 710 515 699 q 518 733 517 721 q 521 757 519 746 q 524 772 522 768 q 527 781 524 775 q 532 789 531 788 q 540 793 533 790 q 549 797 546 796 q 566 797 553 799 q 583 794 579 794 l 583 814 q 566 818 579 815 q 549 824 553 821 q 542 825 546 824 q 533 828 538 826 q 524 832 528 829 l 524 1089 l 875 1089 l 875 1008 q 866 1010 872 1008 q 857 1011 860 1011 q 845 1020 856 1013 q 832 1029 835 1028 q 827 1032 829 1031 q 822 1035 825 1033 q 815 1038 818 1036 q 805 1036 813 1038 q 789 1033 797 1035 q 773 1031 781 1032 q 764 1029 765 1029 q 747 1026 757 1028 q 728 1024 738 1025 q 711 1022 718 1022 q 703 1021 704 1021 q 683 1020 697 1021 q 651 1019 668 1019 q 620 1020 635 1019 q 600 1021 606 1021 q 604 1015 601 1018 q 608 1011 607 1013 q 621 1007 611 1010 q 635 1003 631 1004 q 644 1000 638 1001 q 658 997 651 999 q 671 995 665 996 q 678 994 676 994 q 706 993 686 994 q 750 990 726 992 q 794 988 774 989 q 824 986 815 986 q 833 978 826 983 q 845 965 839 972 q 858 952 851 958 q 867 943 864 946 q 872 935 868 940 q 875 926 875 929 l 875 596 l 758 596 l 758 493 l 647 493 l 647 0 l 532 0 l 524 8 q 516 18 522 10 q 502 35 510 26 q 488 51 494 43 q 481 60 482 58 q 478 63 479 61 q 476 65 478 64 q 472 68 475 67 l 468 68 q 465 67 467 68 q 464 59 465 64 q 463 51 463 54 q 467 33 464 46 q 472 17 469 19 l 481 8 l 481 4 l 481 1 q 482 0 481 0 l 288 0 l 288 493 l 158 493 z "},"z":{"ha":960,"x_min":51,"x_max":908,"o":"m 51 60 q 67 61 56 60 q 90 64 78 63 q 114 67 103 65 q 129 68 125 68 q 138 72 132 69 q 146 78 144 75 q 154 93 149 81 q 163 111 160 106 q 163 115 163 113 q 164 119 164 118 q 163 125 164 122 q 163 129 163 128 q 146 116 160 126 q 129 103 132 106 q 110 94 124 100 q 94 86 97 88 q 92 85 93 85 l 86 85 l 81 85 q 78 86 79 85 q 61 90 71 88 q 51 94 51 93 l 51 142 l 129 142 q 137 150 131 142 q 146 163 143 158 q 150 174 147 165 q 154 189 153 183 q 159 206 156 193 q 163 222 163 219 l 163 232 l 154 232 q 149 222 153 229 q 142 206 146 214 q 134 190 138 197 q 129 181 131 183 q 119 171 126 174 q 101 167 117 171 q 78 163 85 164 l 68 163 l 60 163 q 54 167 57 164 q 51 171 51 169 l 51 485 l 167 485 l 167 588 l 288 588 l 288 690 l 557 690 l 557 801 l 429 801 q 424 806 426 801 q 419 814 421 811 q 419 822 419 815 q 419 836 419 829 q 419 849 419 843 q 419 857 419 856 q 416 862 419 858 q 411 865 413 865 q 408 875 411 868 q 403 883 404 882 q 394 888 401 885 q 386 892 388 890 q 381 900 385 893 q 378 908 378 907 q 373 913 376 910 q 368 917 369 917 q 360 930 367 919 q 351 943 353 940 q 344 952 349 946 q 336 964 340 958 q 326 978 331 969 l 317 978 q 321 960 318 974 q 326 943 324 947 q 330 938 326 942 q 335 935 333 935 q 338 926 335 933 q 343 917 342 919 q 347 913 344 914 l 351 908 q 351 896 353 906 q 351 883 350 886 q 364 870 353 881 q 378 857 375 860 q 383 849 379 854 q 386 840 386 843 q 388 823 386 836 q 389 806 389 810 l 51 806 l 51 1089 l 908 1089 l 908 789 q 902 785 908 788 q 892 781 896 782 q 874 775 888 778 q 857 772 861 772 l 857 751 q 874 753 861 751 q 892 754 888 756 q 902 751 896 754 q 908 746 908 747 l 908 604 l 793 604 l 793 501 l 674 501 l 674 399 l 403 399 l 403 288 l 908 288 l 908 0 l 51 0 l 51 60 l 51 60 z "},"U":{"ha":986,"x_min":51,"x_max":935,"o":"m 51 133 l 51 497 q 58 502 51 499 q 68 506 65 506 q 85 505 72 507 q 103 503 99 503 l 103 524 q 85 526 99 524 q 68 532 72 529 q 58 536 65 533 q 51 540 51 539 l 51 1089 l 394 1089 l 394 717 q 385 718 392 717 q 378 721 379 719 q 365 728 375 721 q 351 738 354 736 q 347 740 349 739 q 342 743 344 742 q 335 746 338 744 q 324 744 332 746 q 308 742 317 743 q 292 739 300 740 q 283 738 285 738 q 267 735 276 736 q 247 732 257 733 q 231 730 238 731 q 222 729 224 729 q 202 728 217 729 q 171 728 188 728 q 140 728 154 728 q 119 729 125 729 q 124 724 121 726 q 129 721 126 721 q 140 716 131 718 q 154 711 150 714 q 164 708 157 710 q 178 706 171 707 q 190 703 185 704 q 197 703 196 703 q 226 701 206 703 q 269 699 246 700 q 314 696 293 697 q 343 694 335 694 q 352 686 346 692 q 365 674 358 681 q 377 660 371 667 q 386 651 383 654 q 390 647 388 649 q 394 642 392 644 q 399 635 397 638 l 399 292 l 588 292 l 588 335 l 738 335 l 746 343 l 711 343 q 690 344 704 343 q 661 347 676 346 q 633 350 646 349 q 617 351 621 351 q 601 356 611 353 q 592 360 592 358 l 592 1089 l 935 1089 l 935 133 l 801 133 l 801 -8 q 787 -8 797 -8 q 765 -6 776 -7 q 744 -3 754 -4 q 729 0 733 -1 q 707 11 726 1 q 678 26 688 21 q 665 35 675 28 q 651 43 654 42 q 646 42 650 43 q 640 42 642 42 q 642 29 640 39 q 643 17 644 19 q 639 7 642 14 q 635 0 636 0 l 185 0 l 185 133 l 51 133 z "},"Q":{"ha":1124,"x_min":51,"x_max":1072,"o":"m 185 -4 l 185 132 l 51 132 l 51 265 q 58 274 51 268 q 68 282 65 281 q 90 288 74 285 q 111 292 106 292 q 113 296 113 292 l 113 297 q 111 300 113 299 q 101 304 107 303 q 93 306 97 306 q 86 308 89 307 q 69 313 82 310 q 51 317 56 317 l 51 956 l 185 956 l 185 1089 l 463 1089 q 472 1082 465 1089 q 481 1071 478 1075 q 485 1059 482 1068 q 489 1046 488 1050 q 490 1034 489 1043 q 493 1015 492 1025 q 496 997 494 1006 q 497 986 497 988 q 500 981 497 983 q 506 976 503 978 l 510 976 l 514 976 q 517 990 515 981 q 523 1011 519 1000 q 528 1032 526 1022 q 532 1046 531 1042 q 536 1067 533 1050 q 540 1089 539 1083 l 861 1089 l 861 956 l 994 956 l 994 617 q 992 613 993 614 q 986 608 988 608 q 977 603 983 606 q 968 600 971 600 q 956 599 967 599 q 943 600 946 600 q 938 596 942 599 q 935 592 935 593 q 943 586 938 589 q 951 582 949 583 q 969 578 954 582 q 986 574 983 575 q 994 569 989 572 q 999 565 999 567 l 999 261 l 1072 261 l 1072 -86 l 647 -86 l 647 -4 l 185 -4 m 403 292 l 647 292 l 647 383 q 653 385 649 383 q 660 386 658 386 q 677 376 663 383 q 694 368 692 369 l 710 368 l 729 368 q 738 369 731 368 q 754 372 746 371 q 770 375 763 374 q 781 376 778 376 q 808 377 789 376 q 851 378 828 378 q 893 380 874 379 q 921 381 913 381 q 919 382 919 381 q 918 384 918 383 q 917 386 918 385 q 909 390 915 388 q 900 394 903 393 q 878 399 894 396 q 857 403 861 401 q 827 404 849 403 q 781 407 806 406 q 733 410 756 408 q 703 411 711 411 l 647 463 l 647 797 l 403 797 l 403 292 z "},"G":{"ha":1021,"x_min":51,"x_max":978,"o":"m 51 133 l 51 481 q 54 489 51 483 q 60 497 57 494 q 68 502 61 499 q 78 506 75 506 q 94 505 81 507 q 111 503 108 503 l 111 524 q 94 526 108 524 q 78 532 81 529 q 70 535 75 533 q 61 538 65 536 q 51 540 56 539 l 51 956 l 185 956 l 185 1089 l 978 1089 l 978 801 l 407 801 l 407 717 q 399 718 403 717 q 386 721 392 718 q 373 728 383 721 q 360 738 363 736 q 355 740 357 739 q 350 743 353 742 q 343 746 346 744 q 333 744 340 746 q 317 742 326 743 q 301 739 308 740 q 292 738 293 738 q 275 735 285 736 q 256 732 265 733 q 240 730 247 731 q 232 729 232 729 q 212 728 226 729 q 181 728 197 728 q 149 728 164 728 q 129 729 135 729 q 132 724 129 726 q 138 721 135 721 q 150 716 140 718 q 163 711 160 714 q 172 708 165 710 q 186 706 179 707 q 199 703 193 704 q 206 703 204 703 q 235 701 214 703 q 278 699 256 700 q 322 696 301 697 q 351 694 343 694 q 360 686 354 692 q 374 674 367 681 q 386 660 381 667 q 394 651 392 654 q 398 647 396 649 q 403 642 400 644 q 407 635 406 638 l 407 294 q 462 294 422 294 q 547 292 501 293 q 631 292 592 292 q 686 292 671 292 q 699 293 689 292 q 720 296 708 294 q 742 299 732 297 q 754 300 751 300 l 772 300 l 789 300 q 804 299 793 300 q 828 296 815 297 q 851 293 840 294 q 865 292 861 292 l 892 317 l 849 317 q 838 318 846 317 q 819 322 829 319 q 799 325 808 324 q 789 326 790 326 q 770 328 783 326 q 742 331 757 329 q 713 333 726 332 q 694 335 700 335 l 694 489 l 978 489 l 978 0 l 738 0 q 731 3 738 0 q 717 10 725 6 q 700 19 708 14 q 686 26 692 24 q 673 35 683 28 q 660 43 663 42 q 654 42 658 43 q 649 42 650 42 q 651 29 649 39 q 651 17 653 19 q 647 7 650 14 q 643 0 644 0 l 185 0 l 185 133 l 51 133 z "},"C":{"ha":978,"x_min":51,"x_max":935,"o":"m 51 133 l 51 463 q 54 472 51 465 q 60 481 57 478 q 64 486 60 482 q 68 489 65 488 q 90 493 74 490 q 111 497 106 496 l 111 506 l 51 524 l 51 956 l 185 956 l 185 1089 l 935 1089 l 935 801 l 399 801 l 399 703 q 376 716 393 706 q 351 729 358 726 l 343 729 l 335 729 q 324 728 332 729 q 308 725 317 726 q 292 722 300 724 q 283 721 285 721 q 270 718 279 719 q 251 715 261 717 q 233 713 242 714 q 222 711 225 711 l 218 711 l 214 711 q 199 713 210 711 q 176 715 188 714 q 153 718 164 717 q 138 721 142 719 l 129 711 q 132 707 129 710 q 138 703 135 704 q 153 699 140 703 q 171 694 165 696 q 183 693 175 694 q 199 690 190 692 q 214 688 207 689 q 222 686 221 686 q 248 685 229 686 q 287 682 267 683 q 326 679 307 681 q 351 678 344 678 l 399 635 l 399 288 l 935 288 l 935 0 l 711 0 q 703 3 710 0 q 694 8 697 6 q 685 17 692 11 q 678 26 679 24 q 676 40 678 31 q 674 60 675 49 q 671 81 672 71 q 668 94 669 90 q 665 104 668 97 q 660 111 663 111 q 656 113 660 113 q 650 114 653 114 q 646 113 649 114 q 643 111 643 113 l 617 0 l 185 0 l 185 133 l 51 133 z "},"M":{"ha":1124,"x_min":51,"x_max":1063,"o":"m 51 871 l 51 1089 l 399 1089 l 399 956 l 536 956 l 536 832 l 588 832 l 588 956 l 725 956 l 725 1089 l 1063 1089 l 1063 733 l 840 733 l 857 721 q 885 719 865 721 q 926 717 904 718 q 967 714 947 715 q 994 711 986 713 q 1014 710 1003 711 q 1036 707 1025 708 q 1055 704 1047 706 q 1063 703 1063 703 l 1063 0 l 947 0 l 947 43 l 926 43 l 908 0 l 725 0 l 725 463 l 664 463 l 664 343 l 450 343 l 450 463 l 399 463 l 399 232 q 387 223 399 229 q 368 214 375 217 l 357 214 l 343 214 q 314 219 333 217 q 292 222 294 222 q 283 231 289 224 q 274 240 276 238 q 266 254 271 244 q 256 274 261 264 q 247 294 251 285 q 240 308 242 304 q 235 301 238 307 q 232 292 232 294 q 235 277 232 290 q 240 257 238 264 q 244 244 240 254 q 249 232 247 235 q 253 223 250 229 q 257 214 257 217 l 274 197 q 280 197 274 197 q 294 194 286 196 q 312 192 303 193 q 326 189 321 190 q 337 188 328 189 q 356 185 346 186 q 374 182 365 183 q 386 181 383 181 q 392 176 389 179 q 394 171 394 174 q 395 160 394 169 q 396 147 396 151 q 395 142 396 144 q 394 136 394 139 l 394 129 q 380 124 393 126 q 360 119 367 121 l 338 119 l 317 119 q 301 128 314 121 q 283 138 289 135 q 276 144 282 139 q 262 154 269 149 q 248 165 254 160 q 240 171 242 169 q 238 171 239 172 q 233 169 236 169 q 232 162 233 167 q 232 154 231 157 q 240 137 233 150 q 249 119 246 124 q 257 110 251 117 q 265 103 263 104 q 290 100 267 103 q 326 94 313 97 q 340 93 331 94 q 360 90 350 92 q 381 88 371 89 q 394 86 390 86 l 394 0 l 51 0 l 51 814 q 58 818 51 815 q 68 824 65 821 q 85 830 72 825 q 112 840 97 835 q 139 851 126 846 q 154 857 151 856 q 163 864 157 860 q 171 871 169 868 l 51 871 z "},"N":{"ha":1124,"x_min":51,"x_max":1063,"o":"m 111 154 q 113 157 111 154 l 113 158 q 111 163 113 163 q 101 167 111 164 q 86 171 92 169 q 69 176 82 174 q 51 181 56 179 l 51 1089 l 407 1089 l 407 956 l 536 956 l 536 828 l 674 828 l 674 694 l 725 694 l 725 875 q 747 872 731 874 q 783 869 764 871 q 817 867 801 868 q 840 865 833 865 q 858 866 846 865 q 885 867 871 867 q 912 867 899 867 q 931 868 925 868 q 933 871 931 869 q 935 875 936 872 q 924 878 933 875 q 908 883 914 882 q 893 888 903 885 q 874 894 883 892 q 856 898 864 896 q 849 900 849 900 q 833 901 846 900 q 806 904 821 903 q 779 907 792 906 q 763 908 767 908 q 750 913 760 910 q 738 917 740 915 q 732 922 735 919 q 729 926 729 924 l 729 1089 l 1063 1089 l 1063 0 l 865 0 q 858 7 864 0 q 849 17 851 14 q 844 26 847 19 q 840 35 842 32 q 835 51 839 38 q 832 68 832 64 q 831 80 832 71 q 828 99 829 89 q 825 117 826 108 q 824 129 824 126 q 818 155 821 139 q 814 171 815 171 l 806 171 q 804 144 806 164 q 801 103 803 125 q 799 63 800 82 q 797 35 797 43 q 793 13 796 26 q 789 0 790 0 l 725 0 l 725 133 l 588 133 l 588 261 l 450 261 l 450 394 l 399 394 l 399 0 l 51 0 l 51 129 q 58 137 51 131 q 68 146 65 143 q 90 151 74 149 q 111 154 106 154 z "},"O":{"ha":1114,"x_min":44,"x_max":1063,"o":"m 44 133 q 47 161 44 140 q 51 189 50 182 q 59 198 53 192 q 68 206 65 204 q 90 211 74 208 q 111 214 106 214 q 113 217 111 214 l 113 218 q 111 222 113 222 q 101 226 111 224 q 86 232 92 229 q 69 236 82 233 q 51 240 56 239 l 51 956 l 176 956 l 176 1089 l 463 1089 q 472 1082 465 1089 q 481 1072 478 1075 q 485 1060 482 1069 q 489 1046 488 1050 q 490 1035 489 1043 q 493 1016 492 1026 q 496 997 494 1006 q 497 986 497 988 q 500 981 497 985 q 506 978 503 978 l 510 976 l 513 976 q 514 978 514 976 q 517 992 515 982 q 523 1012 519 1001 q 528 1032 526 1022 q 532 1046 531 1042 q 536 1067 533 1050 q 540 1089 539 1083 l 668 1089 l 738 1029 q 749 1030 739 1028 q 774 1036 760 1032 q 801 1045 788 1040 q 824 1054 815 1050 q 830 1060 825 1056 q 840 1072 835 1065 q 851 1083 846 1078 q 857 1089 856 1089 q 872 1092 861 1090 q 894 1095 882 1093 q 916 1099 906 1097 q 931 1100 926 1100 l 931 956 l 1063 956 l 1063 575 q 1060 571 1063 574 q 1054 565 1057 568 q 1045 560 1051 564 q 1038 557 1039 557 q 1024 558 1035 557 q 1011 557 1014 558 q 1007 553 1010 557 q 1003 549 1004 550 q 1012 544 1006 547 q 1021 540 1018 542 q 1038 536 1024 539 q 1054 532 1051 533 q 1060 528 1057 531 q 1063 524 1063 525 l 1063 133 l 931 133 l 931 0 l 176 0 l 176 133 l 44 133 m 394 283 l 715 283 l 715 340 q 721 342 718 340 q 729 343 724 343 q 746 334 732 342 q 763 326 760 326 q 769 326 764 326 q 778 325 775 325 q 789 326 782 325 q 797 326 796 326 q 806 328 799 326 q 823 331 814 329 q 839 333 832 332 q 849 335 846 335 q 876 335 857 335 q 919 336 896 336 q 961 337 942 336 q 989 338 981 338 q 986 343 989 340 q 978 347 985 344 q 968 351 971 350 q 959 353 965 351 q 946 356 953 354 q 933 358 939 357 q 926 360 928 360 q 896 361 918 360 q 849 364 874 363 q 802 367 824 365 q 772 368 781 368 l 715 419 l 715 797 l 394 797 l 394 283 z "},"Z":{"ha":969,"x_min":51,"x_max":908,"o":"m 167 485 l 167 588 l 288 588 l 288 690 l 557 690 l 557 801 l 51 801 l 51 1089 l 908 1089 l 908 604 l 793 604 l 793 501 l 674 501 l 674 399 l 403 399 l 403 288 l 908 288 l 908 0 l 51 0 l 51 485 l 167 485 z "},"b":{"ha":943,"x_min":51,"x_max":883,"o":"m 197 343 q 185 347 194 344 q 171 351 175 350 q 157 354 168 351 q 133 360 146 357 q 108 365 119 363 q 94 368 97 367 l 60 403 q 54 412 57 406 q 51 419 51 418 l 51 1089 l 883 1089 l 883 569 l 789 569 l 789 518 l 883 518 l 883 0 l 272 0 q 273 13 272 3 q 274 26 274 22 q 279 38 275 28 q 283 51 283 49 l 283 100 l 283 154 q 282 176 283 160 q 279 210 281 193 q 276 244 278 228 q 274 265 275 260 q 271 282 274 268 q 265 300 268 296 q 262 309 265 303 q 257 317 258 315 l 257 94 q 254 79 257 92 q 249 60 251 67 q 244 51 247 57 q 240 43 242 44 q 229 31 236 39 q 215 17 222 24 q 203 5 208 10 q 197 0 197 0 l 51 0 l 51 308 q 61 313 51 310 q 78 317 71 315 q 87 318 79 317 q 103 322 94 319 q 119 325 111 324 q 129 326 126 326 q 143 329 133 326 q 163 335 153 332 q 183 340 174 338 q 197 343 193 342 m 411 292 l 524 292 l 524 394 l 411 394 l 411 292 m 411 694 l 528 694 l 528 742 l 694 742 q 674 749 690 744 q 651 754 657 754 q 639 756 649 754 q 617 758 629 757 q 596 761 606 760 q 583 763 586 763 q 567 765 576 764 q 549 768 557 765 q 528 772 539 769 l 528 797 l 411 797 l 411 694 z "},"d":{"ha":978,"x_min":51,"x_max":917,"o":"m 818 1089 l 818 990 l 917 990 l 917 524 q 896 519 913 522 q 875 514 879 517 q 860 510 869 513 q 849 506 850 507 l 847 503 l 847 499 q 849 497 847 497 q 853 492 850 494 q 857 489 856 489 q 874 489 860 488 q 892 489 889 490 q 907 476 897 486 q 917 463 917 465 l 917 99 l 818 99 l 818 0 l 343 0 q 339 26 342 7 q 335 51 336 44 q 331 67 333 54 q 326 86 328 81 q 321 101 324 92 q 317 111 318 111 q 314 113 317 111 q 313 112 313 113 q 311 111 313 111 l 308 111 q 304 108 307 111 q 300 103 301 104 q 299 89 300 99 q 296 69 297 79 q 293 49 294 58 q 292 35 292 39 q 289 26 292 32 q 283 17 286 19 q 279 13 282 15 q 274 8 276 10 q 265 3 271 6 q 257 0 258 0 l 51 0 l 51 1089 l 818 1089 m 411 292 l 561 292 l 561 626 q 565 633 563 629 q 570 638 568 636 q 575 643 572 640 q 588 657 578 647 q 600 668 597 667 q 609 674 603 671 q 617 678 615 676 q 643 679 625 678 q 682 682 661 681 q 721 685 703 683 q 746 686 739 686 q 771 690 751 686 q 797 694 790 693 q 810 699 800 696 q 824 703 821 701 l 832 711 q 833 715 832 714 q 833 717 833 715 q 804 717 825 717 q 760 719 783 718 q 715 720 736 719 q 686 721 694 721 q 676 722 683 721 q 660 725 668 724 q 644 728 651 726 q 635 729 636 729 l 619 729 l 608 729 q 602 724 607 728 q 592 715 597 719 q 581 707 586 711 q 575 703 576 703 q 568 705 572 703 q 561 707 564 707 l 561 797 l 411 797 l 411 292 z "},"e":{"ha":926,"x_min":51,"x_max":875,"o":"m 51 240 q 65 242 56 240 q 85 244 75 243 q 106 247 96 246 q 119 249 115 249 q 144 253 125 250 q 171 257 164 256 q 193 261 176 258 q 214 265 210 264 l 51 285 l 51 746 q 54 751 51 747 q 60 754 57 754 q 75 758 63 756 q 94 763 88 761 q 119 768 100 765 q 146 772 139 771 q 160 773 149 772 q 184 775 171 774 q 208 778 197 776 q 222 781 219 779 q 232 784 225 781 q 240 789 239 788 q 261 793 244 790 q 283 797 278 796 l 283 806 q 278 807 283 806 q 264 810 272 808 q 247 813 256 811 q 232 814 238 814 q 203 815 224 814 q 159 815 182 815 q 115 815 136 815 q 86 814 94 814 q 77 818 83 815 q 68 824 71 821 q 64 827 67 824 q 60 832 61 831 q 54 841 57 835 q 51 849 51 847 l 51 1089 l 875 1089 l 875 801 l 411 801 l 411 690 l 626 690 q 639 678 629 690 q 651 660 649 667 q 656 647 653 656 q 661 626 658 638 q 666 606 664 615 q 668 592 668 596 q 673 606 669 596 q 681 626 676 615 q 688 647 685 638 q 694 660 692 657 q 707 676 697 667 q 719 686 717 686 l 875 686 l 875 399 l 411 399 l 411 288 l 875 288 l 875 0 l 729 0 q 725 3 728 0 q 719 8 722 6 q 715 17 718 11 q 711 26 713 24 q 708 47 711 28 q 703 78 704 67 q 701 89 703 81 q 699 107 700 97 q 696 125 697 117 q 694 138 694 133 q 690 133 693 136 q 686 129 686 131 q 681 113 685 126 q 678 94 678 99 q 675 76 676 89 q 672 47 674 63 q 669 19 671 32 q 668 0 668 6 l 335 0 q 324 7 333 0 q 308 17 314 14 q 305 21 308 18 q 300 26 301 24 q 286 44 296 32 q 274 60 276 57 q 267 72 271 64 q 260 89 264 81 q 252 103 256 97 q 249 111 249 110 q 246 135 247 118 q 243 172 244 153 q 241 208 242 190 q 240 232 240 225 q 236 212 239 226 q 231 181 233 197 q 226 149 228 164 q 222 129 224 135 l 222 26 l 197 0 l 51 0 l 51 240 l 51 240 z "},"f":{"ha":917,"x_min":51,"x_max":875,"o":"m 875 1089 l 875 806 l 660 806 l 660 875 q 656 878 658 875 q 651 883 653 882 q 647 892 650 885 q 643 900 644 899 q 635 904 642 901 q 626 908 628 907 q 621 917 624 911 q 617 926 618 924 l 608 935 q 600 948 607 938 q 592 960 593 958 q 584 969 589 964 q 575 981 579 975 q 565 994 569 986 l 557 994 q 561 977 558 990 q 565 960 564 964 q 570 956 567 960 q 575 951 574 953 q 578 943 575 950 q 583 935 582 936 q 588 931 583 932 l 592 926 q 592 913 593 924 q 592 900 590 903 q 604 887 593 897 q 617 875 615 876 q 623 866 619 872 q 626 857 626 860 l 626 832 l 626 814 l 608 801 l 411 801 l 411 690 l 875 690 l 875 403 l 615 403 q 616 412 615 406 q 617 419 617 418 q 622 438 618 424 q 630 467 625 451 q 638 497 635 483 q 643 514 642 511 q 644 518 643 515 q 644 524 644 521 q 644 528 644 525 q 643 532 643 531 q 629 519 639 529 q 617 506 619 510 q 606 485 614 500 q 590 453 599 469 q 575 420 582 436 q 565 399 568 404 l 407 399 l 407 0 l 51 0 l 51 1089 l 875 1089 z "},"h":{"ha":994,"x_min":51,"x_max":935,"o":"m 386 1089 l 394 1081 q 397 1065 396 1078 q 397 1044 397 1051 q 397 1033 397 1040 q 397 1017 397 1025 q 395 1002 396 1008 q 394 994 394 996 q 392 988 394 993 q 386 978 389 983 q 381 967 383 972 q 378 960 378 961 q 376 958 376 960 l 376 956 l 376 953 q 378 951 376 951 q 388 946 379 949 q 399 943 396 943 l 399 694 l 588 694 l 588 1089 l 935 1089 l 935 351 l 857 351 q 870 342 860 349 q 883 335 881 336 q 891 332 885 335 q 905 326 897 329 q 919 321 913 324 q 926 317 925 318 q 931 313 928 315 q 935 308 935 310 l 935 0 l 781 0 q 774 14 781 4 q 763 26 767 24 l 757 26 q 751 27 754 26 q 747 28 749 28 q 742 27 744 28 q 736 26 739 26 l 729 26 q 722 21 728 25 q 708 13 715 17 q 694 4 700 8 q 686 0 688 0 q 667 -3 681 -1 q 638 -6 653 -4 q 610 -8 624 -7 q 592 -8 597 -8 l 592 214 q 599 229 592 217 q 608 249 606 242 q 613 253 610 250 q 617 257 615 257 q 635 267 622 260 q 651 275 649 274 q 672 280 657 276 q 703 288 686 283 q 734 295 719 292 q 754 300 749 299 l 608 300 l 588 317 l 588 394 l 399 394 l 399 0 l 146 0 l 146 119 q 141 116 144 119 q 138 111 138 113 q 128 95 135 108 q 119 78 122 82 q 115 65 118 75 q 111 51 113 54 q 110 44 111 50 q 107 30 108 38 q 104 16 106 22 q 103 8 103 10 q 95 4 101 7 q 86 0 89 1 q 69 -2 82 -1 q 51 -3 56 -3 l 51 1089 l 386 1089 z "},"i":{"ha":454,"x_min":51,"x_max":394,"o":"m 394 1089 l 394 857 q 388 853 394 856 q 378 849 381 850 q 365 847 375 849 q 343 844 354 846 q 322 842 332 843 q 308 840 311 840 q 293 833 306 839 q 274 824 281 826 q 269 819 272 822 q 265 814 267 817 l 265 810 l 265 806 q 285 805 271 806 q 317 803 300 804 q 348 800 333 801 q 368 797 363 799 q 377 794 371 797 q 386 789 383 792 q 389 787 388 788 q 392 785 390 786 q 394 781 393 783 l 394 0 l 300 0 q 292 3 299 0 q 283 8 286 6 q 279 13 282 10 q 274 17 276 15 q 266 26 272 18 q 253 43 260 35 q 240 59 246 51 q 232 68 233 67 q 226 74 229 71 q 222 78 224 78 l 217 75 q 215 67 217 72 q 214 60 214 63 q 218 42 215 54 q 222 26 221 29 l 232 17 l 232 13 l 232 8 q 223 3 229 6 q 214 0 217 0 l 51 0 l 51 1089 l 394 1089 z "},"j":{"ha":900,"x_min":26,"x_max":840,"o":"m 224 283 q 227 271 225 279 q 232 253 229 263 q 237 235 235 243 q 240 222 239 226 q 246 208 243 218 q 249 197 249 199 q 261 181 251 194 q 275 163 271 168 l 292 146 q 301 145 293 146 q 314 144 310 144 q 324 145 317 144 q 335 146 332 146 q 317 162 331 149 q 301 181 304 175 q 296 188 300 182 q 288 201 292 194 q 280 215 283 208 q 275 222 276 221 q 266 231 274 225 q 258 240 258 238 q 257 243 257 242 l 257 247 l 257 253 q 258 257 257 254 q 263 276 260 264 q 267 288 265 288 l 493 288 l 493 1089 l 840 1089 l 840 754 l 832 746 q 818 745 828 746 q 798 743 808 744 q 778 740 788 742 q 764 738 768 739 q 749 730 761 736 q 729 721 736 724 q 725 717 728 719 q 721 711 722 714 q 719 710 719 711 l 719 707 l 719 706 q 721 703 719 704 q 741 702 726 703 q 772 700 756 701 q 803 697 789 699 q 824 694 818 696 q 834 690 828 693 q 840 686 840 688 l 840 0 l 26 0 l 26 283 l 224 283 z "},"k":{"ha":951,"x_min":51,"x_max":900,"o":"m 101 17 q 102 22 101 19 q 103 26 103 25 q 106 34 103 28 q 111 43 108 40 q 119 56 113 46 q 129 68 126 67 q 134 78 131 71 q 138 86 138 85 l 138 181 q 132 167 135 178 q 129 154 129 157 q 126 142 128 151 q 120 120 124 132 q 115 99 117 108 q 111 86 113 89 q 107 78 111 85 q 97 63 103 71 q 86 47 92 54 q 78 35 81 39 q 69 26 75 32 q 60 17 63 19 q 56 15 57 15 q 53 14 54 14 l 51 14 l 51 694 q 61 706 51 696 q 78 721 71 715 q 85 725 79 722 q 94 729 92 728 q 115 734 100 731 q 146 742 129 738 q 177 749 163 746 q 197 754 192 753 l 206 763 q 185 764 200 763 q 154 767 171 765 q 123 769 138 768 q 103 772 108 771 q 80 775 96 772 q 60 781 64 778 q 54 784 57 781 q 51 789 51 788 l 51 1089 l 197 1089 q 208 1079 199 1089 q 222 1063 218 1069 q 233 1049 226 1058 q 240 1038 240 1039 l 240 789 l 257 814 q 258 837 257 821 q 261 871 260 853 q 264 904 263 889 q 265 926 265 919 q 269 939 265 929 q 274 951 274 949 q 274 969 274 953 q 275 994 275 986 q 274 1019 275 1003 q 274 1038 274 1036 q 270 1055 274 1040 q 265 1072 267 1069 q 265 1080 265 1074 q 264 1089 264 1086 l 399 1089 l 399 806 l 450 806 l 450 956 l 553 956 l 553 1089 l 900 1089 l 900 707 l 785 707 l 785 604 l 678 604 q 674 597 676 601 q 668 592 671 593 q 643 576 663 588 q 617 561 624 564 l 674 561 l 674 485 l 785 485 l 785 382 l 900 382 l 900 0 l 729 0 q 725 22 728 6 q 719 43 722 39 q 717 47 719 44 q 711 51 714 50 l 710 51 q 707 53 708 51 q 706 52 706 53 q 704 51 706 51 l 703 51 q 699 38 701 49 q 694 26 696 28 q 690 17 693 24 q 686 8 688 10 q 684 6 685 7 q 682 3 683 4 q 678 0 681 1 l 553 0 l 553 133 l 450 133 l 450 283 l 399 283 l 399 0 l 111 0 q 107 3 110 0 q 103 8 104 6 q 101 11 101 10 l 101 17 l 101 17 z "},"l":{"ha":900,"x_min":51,"x_max":865,"o":"m 171 706 q 172 707 171 707 q 171 710 172 707 l 171 711 q 167 717 171 714 q 163 721 164 719 q 144 730 157 724 q 129 738 131 736 q 115 740 125 739 q 94 743 106 742 q 74 745 83 744 q 60 746 64 746 l 51 754 l 51 1089 l 399 1089 l 399 288 l 626 288 q 631 275 629 281 q 635 257 633 261 l 635 247 l 635 240 q 626 231 633 238 q 617 222 619 225 q 613 215 617 221 q 604 201 608 208 q 597 188 600 194 q 592 181 593 182 q 576 162 589 175 q 557 146 563 149 q 568 145 560 146 q 579 144 576 144 q 590 145 582 144 q 600 146 599 146 q 608 153 601 146 q 617 163 614 160 q 632 181 622 168 q 643 197 642 194 q 647 208 644 199 q 651 222 650 218 q 655 235 653 226 q 660 253 657 243 q 665 271 663 263 q 668 283 668 279 l 865 283 l 865 0 l 51 0 l 51 686 q 58 690 51 688 q 68 694 65 693 q 88 697 74 696 q 119 700 103 699 q 151 702 136 701 q 171 703 165 703 l 171 706 z "},"p":{"ha":926,"x_min":51,"x_max":883,"o":"m 197 343 q 185 347 194 344 q 171 351 175 350 q 157 354 168 351 q 133 360 146 357 q 108 365 119 363 q 94 368 97 367 l 60 403 q 54 412 57 406 q 51 419 51 418 l 51 1089 l 883 1089 l 883 313 l 407 313 l 407 0 l 272 0 q 273 13 272 3 q 274 26 274 22 q 279 38 275 28 q 283 51 283 49 l 283 100 l 283 154 q 282 176 283 160 q 279 210 281 193 q 276 244 278 228 q 274 265 275 260 q 271 282 274 268 q 265 300 268 296 q 262 309 265 303 q 257 317 258 315 l 257 94 q 254 79 257 92 q 249 60 251 67 q 244 51 247 57 q 240 43 242 44 q 229 31 236 39 q 215 17 222 24 q 203 5 208 10 q 197 0 197 0 l 51 0 l 51 308 q 61 313 51 310 q 78 317 71 315 q 87 318 79 317 q 103 322 94 319 q 119 325 111 324 q 129 326 126 326 q 143 329 133 326 q 163 335 153 332 q 183 340 174 338 q 197 343 193 342 m 411 575 l 528 575 l 528 742 l 694 742 q 674 749 690 744 q 651 754 657 754 q 639 756 649 754 q 617 758 629 757 q 596 761 606 760 q 583 763 586 763 q 567 765 576 764 q 549 768 557 765 q 528 772 539 769 l 528 832 l 411 832 l 411 575 z "},"r":{"ha":943,"x_min":51,"x_max":883,"o":"m 197 343 q 185 347 194 344 q 171 351 175 350 q 157 354 168 351 q 133 360 146 357 q 108 365 119 363 q 94 368 97 367 l 60 403 q 54 412 57 406 q 51 419 51 418 l 51 1089 l 883 1089 l 883 467 l 789 467 l 789 415 l 883 415 l 883 0 l 528 0 l 528 394 l 407 394 l 407 0 l 272 0 q 273 13 272 3 q 274 26 274 22 q 279 38 275 28 q 283 51 283 49 l 283 100 l 283 154 q 282 176 283 160 q 279 210 281 193 q 276 244 278 228 q 274 265 275 260 q 271 282 274 268 q 265 300 268 296 q 262 309 265 303 q 257 317 258 315 l 257 94 q 254 79 257 92 q 249 60 251 67 q 244 51 247 57 q 240 43 242 44 q 229 31 236 39 q 215 17 222 24 q 203 5 208 10 q 197 0 197 0 l 51 0 l 51 308 q 61 313 51 310 q 78 317 71 315 q 87 318 79 317 q 103 322 94 319 q 119 325 111 324 q 129 326 126 326 q 143 329 133 326 q 163 335 153 332 q 183 340 174 338 q 197 343 193 342 m 411 694 l 528 694 l 528 742 l 694 742 q 674 749 690 744 q 651 754 657 754 q 639 756 649 754 q 617 758 629 757 q 596 761 606 760 q 583 763 586 763 q 567 765 576 764 q 549 768 557 765 q 528 772 539 769 l 528 797 l 411 797 l 411 694 z "},"s":{"ha":960,"x_min":51,"x_max":908,"o":"m 557 288 l 557 399 l 51 399 l 51 746 q 54 751 51 747 q 60 754 57 754 q 75 758 63 756 q 94 763 88 761 q 119 768 100 765 q 146 772 139 771 q 160 773 149 772 q 184 775 171 774 q 208 778 197 776 q 222 781 219 779 q 232 784 225 781 q 240 789 239 788 q 261 793 244 790 q 283 797 278 796 l 283 806 q 278 807 283 806 q 264 810 272 808 q 247 813 256 811 q 232 814 238 814 q 203 815 224 814 q 159 815 182 815 q 115 815 136 815 q 86 814 94 814 q 77 818 83 815 q 68 824 71 821 q 64 827 67 824 q 60 832 61 831 q 54 841 57 835 q 51 849 51 847 l 51 1089 l 908 1089 l 908 801 l 403 801 l 403 690 l 635 690 q 638 679 635 688 q 643 668 642 671 q 648 665 644 668 q 651 660 651 661 q 656 646 653 656 q 661 626 658 636 q 666 606 664 615 q 668 592 668 596 q 673 606 669 596 q 681 626 676 615 q 688 647 685 638 q 694 660 692 657 q 707 676 697 667 q 719 686 717 686 l 908 686 l 908 0 l 729 0 q 725 3 728 0 q 719 8 722 6 q 715 17 718 11 q 711 26 713 24 q 708 47 711 28 q 703 78 704 67 q 701 89 703 81 q 699 107 700 97 q 696 125 697 117 q 694 138 694 133 q 690 133 693 136 q 686 129 686 131 q 681 113 685 126 q 678 94 678 99 q 675 76 676 89 q 672 47 674 63 q 669 19 671 32 q 668 0 668 6 l 335 0 q 324 7 333 0 q 308 17 314 14 q 305 21 308 18 q 300 26 301 24 q 286 44 296 32 q 274 60 276 57 q 267 72 271 64 q 260 89 264 81 q 252 103 256 97 q 249 111 249 110 q 246 135 247 118 q 243 172 244 153 q 241 208 242 190 q 240 232 240 225 q 236 212 239 226 q 231 181 233 197 q 226 149 228 164 q 222 129 224 135 l 222 26 l 197 0 l 51 0 l 51 288 l 557 288 z "},"t":{"ha":917,"x_min":43,"x_max":875,"o":"m 343 626 q 344 631 344 626 l 344 632 q 343 635 344 633 q 332 638 342 635 q 318 643 322 642 q 298 648 313 644 q 279 651 283 651 l 279 801 l 43 801 l 43 1089 l 875 1089 l 875 806 l 789 806 q 784 815 788 806 q 781 832 781 825 q 781 840 781 833 q 781 853 781 846 q 781 867 781 861 q 781 875 781 874 l 776 879 q 772 883 772 881 q 768 892 771 885 q 764 900 765 899 q 754 904 761 901 q 746 908 747 907 q 742 917 744 911 q 738 926 739 924 q 733 930 736 926 q 729 935 729 933 q 721 948 728 938 q 711 960 714 958 q 704 969 708 964 q 696 981 700 975 q 686 994 690 986 l 678 994 q 681 977 678 990 q 686 960 685 964 q 691 956 688 960 q 694 951 694 953 q 699 943 696 950 q 703 935 703 936 l 711 926 q 712 913 713 924 q 711 900 711 903 q 724 887 714 897 q 738 875 735 876 q 743 866 740 872 q 746 857 746 860 q 749 829 747 850 q 750 801 750 808 l 639 801 l 639 0 l 567 0 q 563 26 565 7 q 557 51 560 44 q 553 67 557 54 q 549 86 550 81 q 544 101 547 92 q 540 111 542 111 l 538 113 q 535 112 536 113 q 533 111 535 111 l 532 111 q 527 108 531 111 q 524 103 524 104 q 522 89 524 99 q 519 69 521 79 q 517 49 518 58 q 515 35 515 39 q 512 26 515 32 q 506 17 508 19 q 502 13 506 15 q 497 8 499 10 q 488 3 494 6 q 481 0 482 0 l 283 0 l 283 600 q 290 609 283 603 q 300 617 296 615 q 322 623 306 619 q 343 626 338 626 z "},"v":{"ha":943,"x_min":43,"x_max":892,"o":"m 125 167 l 125 364 l 43 364 l 43 497 l 63 497 q 67 506 63 500 q 69 514 71 513 q 56 520 67 517 q 43 524 46 524 l 43 1089 l 390 1089 l 390 292 l 544 292 l 544 1089 l 678 1089 q 690 1079 681 1089 q 703 1063 700 1069 q 710 1051 706 1058 q 718 1035 714 1043 q 726 1019 722 1026 q 729 1011 729 1013 q 732 988 731 1004 q 735 951 733 971 q 737 915 736 932 q 738 892 738 899 q 741 912 739 897 q 746 943 743 926 q 751 974 749 960 q 754 994 754 989 q 755 1013 754 1000 q 756 1042 756 1026 q 758 1070 757 1057 q 758 1089 758 1083 l 892 1089 l 892 883 l 764 857 q 777 856 768 857 q 797 853 786 854 q 818 850 808 851 q 832 849 828 849 q 849 846 839 847 q 868 843 858 844 q 892 840 879 842 l 892 364 l 810 364 l 810 167 l 690 167 l 690 -3 q 665 -3 683 -3 q 628 -2 647 -3 q 591 -1 608 -1 q 567 0 574 0 q 554 3 564 0 q 540 8 544 6 l 524 17 q 510 26 521 19 q 497 35 500 32 q 492 33 496 35 q 486 32 488 32 q 488 20 486 29 q 489 8 490 11 q 485 3 488 6 q 481 0 482 0 l 244 0 l 244 167 l 125 167 z "},"a":{"ha":943,"x_min":51,"x_max":883,"o":"m 643 1089 q 655 1078 646 1085 q 668 1072 664 1072 q 687 1078 674 1072 q 703 1089 700 1085 l 883 1089 l 883 236 q 870 238 881 236 q 857 240 860 239 q 840 249 854 240 q 824 257 826 257 q 807 258 819 257 q 780 261 794 260 q 751 264 765 263 q 729 265 736 265 q 720 265 728 265 q 703 266 713 265 q 685 267 694 267 q 671 267 676 267 q 656 267 665 267 q 639 266 647 267 q 624 265 631 265 q 617 265 618 265 q 606 263 615 265 q 592 257 596 260 q 574 249 588 254 q 557 240 560 243 l 549 232 q 547 228 547 229 l 547 222 q 548 218 547 221 q 549 214 549 215 q 553 219 550 217 q 557 222 556 222 q 566 228 560 225 q 575 232 572 231 q 592 238 579 235 q 608 240 606 240 l 660 240 l 711 240 q 719 240 713 240 q 735 238 726 239 q 751 235 743 236 q 763 232 758 233 q 776 228 765 231 q 789 222 786 225 q 802 214 792 221 q 814 206 813 207 q 831 201 817 204 q 849 197 846 199 q 858 192 851 194 q 869 188 864 190 q 883 181 875 183 l 883 0 l 528 0 l 528 292 l 407 292 l 407 -3 q 389 -3 401 -3 q 362 -2 376 -3 q 335 -1 347 -1 q 317 0 322 0 q 290 4 310 1 q 265 8 271 7 q 249 18 263 10 q 232 26 235 26 q 213 15 225 25 q 197 0 200 6 l 51 0 l 51 1089 l 643 1089 m 343 524 l 390 524 l 390 583 l 544 583 l 544 524 l 592 524 l 592 707 l 528 707 l 528 772 l 407 772 l 407 707 l 343 707 l 343 524 m 274 797 l 386 797 l 386 900 l 274 900 l 274 797 m 549 797 l 660 797 l 660 900 l 549 900 l 549 797 z "},"X":{"ha":1132,"x_min":51,"x_max":1081,"o":"m 185 390 l 185 493 l 283 493 l 283 613 l 185 613 l 185 715 l 51 715 l 51 797 q 77 801 58 799 q 103 806 96 804 q 112 810 106 807 q 119 814 118 813 q 128 830 122 817 q 138 849 135 843 l 138 857 l 138 865 q 120 853 133 863 q 103 840 107 843 q 85 831 99 838 q 68 822 71 825 q 60 822 65 822 q 51 821 54 821 l 51 874 q 77 877 58 874 q 103 883 96 881 q 112 890 106 883 q 119 900 118 897 q 124 911 121 901 q 129 925 126 921 q 133 944 131 931 q 138 960 136 957 q 137 964 138 961 q 136 968 136 967 l 129 968 q 124 958 128 965 q 115 943 119 951 q 108 927 111 935 q 103 917 104 919 l 94 908 q 74 904 90 907 q 51 900 57 901 l 51 1097 l 407 1097 l 407 964 l 510 964 l 510 865 l 621 865 l 621 964 l 725 964 l 725 1097 l 1081 1097 l 1081 715 l 947 715 l 947 613 l 849 613 l 849 493 l 947 493 l 947 390 l 1081 390 l 1081 222 q 1067 218 1072 219 q 1055 215 1061 217 q 1046 214 1049 214 q 1032 213 1042 214 q 1012 210 1022 211 q 992 207 1001 208 q 978 206 982 206 q 994 203 982 206 q 1020 197 1007 200 q 1046 192 1033 194 q 1063 189 1058 190 q 1074 184 1067 188 q 1081 179 1081 181 l 1081 8 l 978 8 q 972 15 975 8 q 968 25 969 22 q 968 33 968 26 q 968 47 968 39 q 968 60 968 54 q 968 68 968 67 q 965 88 968 74 q 959 119 963 103 q 952 151 956 136 q 947 171 949 165 l 947 51 q 940 37 947 50 q 926 17 932 24 q 921 11 924 14 q 917 8 918 8 l 725 8 l 725 142 l 621 142 l 621 240 l 510 240 l 510 142 l 407 142 l 407 8 l 51 8 l 51 390 l 185 390 z "},"Y":{"ha":1114,"x_min":43,"x_max":1072,"o":"m 271 399 l 271 501 l 168 501 l 168 604 l 43 604 l 43 690 l 197 690 q 176 698 193 693 q 154 703 160 703 q 142 704 151 703 q 120 707 132 706 q 99 710 108 708 q 86 711 89 711 q 60 717 76 714 q 43 721 43 719 l 43 1089 l 399 1089 l 399 828 l 501 828 l 501 729 l 608 729 q 617 747 611 733 q 626 763 624 760 q 634 768 628 765 q 643 772 640 771 q 660 771 647 772 q 678 769 674 769 l 678 789 q 660 793 674 790 q 643 797 647 796 q 636 799 640 797 q 628 801 632 800 q 618 806 622 803 q 613 817 615 808 q 610 828 610 825 l 717 828 l 717 1089 l 1072 1089 l 1072 965 q 1063 967 1069 965 q 1054 969 1057 968 q 1042 977 1053 969 q 1029 986 1032 985 q 1024 989 1026 988 q 1019 992 1022 990 q 1013 994 1015 993 q 1002 993 1010 994 q 986 990 994 992 q 969 988 978 989 q 960 986 961 986 q 944 983 954 985 q 925 981 935 982 q 908 978 915 979 q 900 978 901 978 q 880 977 894 978 q 849 976 865 976 q 817 977 832 976 q 797 978 803 978 q 801 972 799 975 q 806 969 804 969 q 818 965 808 967 q 832 960 828 963 q 855 955 838 958 q 875 951 872 951 q 903 950 883 951 q 947 947 924 949 q 992 944 971 946 q 1021 943 1013 943 q 1030 935 1024 940 q 1042 922 1036 929 q 1055 909 1049 915 q 1064 900 1061 903 q 1069 892 1065 897 q 1072 883 1072 886 l 1072 604 l 947 604 l 947 501 l 844 501 l 844 399 l 742 399 l 742 0 l 532 0 l 524 8 q 516 18 522 10 q 502 35 510 26 q 488 51 494 43 q 481 60 482 58 q 478 63 479 61 q 476 65 478 64 q 472 68 475 67 l 468 68 q 465 67 467 68 q 464 59 465 64 q 463 51 463 54 q 467 33 464 46 q 472 17 469 19 l 481 8 l 481 4 l 481 1 q 482 0 481 0 l 374 0 l 374 399 l 271 399 z "},"W":{"ha":1124,"x_min":51,"x_max":1063,"o":"m 171 218 q 163 225 169 221 q 154 232 157 229 q 139 238 151 233 q 112 249 126 243 q 85 259 97 254 q 68 265 72 264 q 58 271 63 268 q 51 275 54 272 l 51 1089 l 394 1089 l 394 1003 q 381 1001 390 1003 q 360 999 371 1000 q 340 996 350 997 q 326 994 331 994 q 290 989 313 992 q 265 986 267 986 q 257 978 263 985 q 249 969 251 972 q 240 952 246 965 q 232 935 233 939 q 232 927 231 932 q 233 919 233 922 q 238 918 236 919 q 240 917 239 917 q 248 924 242 918 q 262 935 254 929 q 276 945 269 940 q 283 951 282 950 q 301 961 289 954 q 317 969 314 968 l 338 969 l 360 969 q 380 965 367 968 q 394 960 393 963 l 394 953 q 395 947 394 950 q 396 942 396 944 q 395 928 396 936 q 394 917 394 919 q 392 913 394 915 q 386 908 389 910 q 374 907 383 908 q 356 904 365 906 q 337 901 346 903 q 326 900 328 900 q 312 897 321 899 q 294 894 303 896 q 280 892 286 893 q 274 892 274 892 l 257 875 q 253 866 257 872 q 249 857 250 860 q 244 844 247 854 q 240 832 240 835 q 235 812 238 825 q 232 797 232 799 q 235 788 232 794 q 240 781 238 782 q 247 794 242 785 q 256 815 251 804 q 266 835 261 825 q 274 849 271 844 q 283 858 276 851 q 292 865 289 865 q 314 869 294 867 q 343 875 333 872 l 357 875 l 368 875 q 387 866 375 872 q 399 857 399 860 l 399 626 l 450 626 l 450 746 l 664 746 l 664 626 l 725 626 l 725 1089 l 908 1089 l 926 1046 l 947 1046 l 947 1089 l 1063 1089 l 1063 386 q 1055 385 1063 386 q 1036 382 1047 383 q 1014 379 1025 381 q 994 378 1003 378 q 967 375 986 376 q 926 372 947 374 q 885 369 904 371 q 857 368 865 368 l 840 356 l 1063 356 l 1063 0 l 725 0 l 725 133 l 588 133 l 588 257 l 536 257 l 536 133 l 399 133 l 399 0 l 51 0 l 51 218 l 171 218 z "},"A":{"ha":943,"x_min":51,"x_max":883,"o":"m 643 1089 q 655 1078 646 1085 q 668 1072 664 1072 q 687 1078 674 1072 q 703 1089 700 1085 l 883 1089 l 883 236 q 870 238 881 236 q 857 240 860 239 q 840 249 854 240 q 824 257 826 257 q 807 258 819 257 q 780 261 794 260 q 751 264 765 263 q 729 265 736 265 q 720 265 728 265 q 703 266 713 265 q 685 267 694 267 q 671 267 676 267 q 656 267 665 267 q 639 266 647 267 q 624 265 631 265 q 617 265 618 265 q 606 263 615 265 q 592 257 596 260 q 574 249 588 254 q 557 240 560 243 l 549 232 q 547 228 547 229 l 547 222 q 548 218 547 221 q 549 214 549 215 q 553 219 550 217 q 557 222 556 222 q 566 228 560 225 q 575 232 572 231 q 592 238 579 235 q 608 240 606 240 l 660 240 l 711 240 q 719 240 713 240 q 735 238 726 239 q 751 235 743 236 q 763 232 758 233 q 776 228 765 231 q 789 222 786 225 q 802 214 792 221 q 814 206 813 207 q 831 201 817 204 q 849 197 846 199 q 858 192 851 194 q 869 188 864 190 q 883 181 875 183 l 883 0 l 528 0 l 528 292 l 407 292 l 407 -3 q 389 -3 401 -3 q 362 -2 376 -3 q 335 -1 347 -1 q 317 0 322 0 q 290 4 310 1 q 265 8 271 7 q 249 18 263 10 q 232 26 235 26 q 213 15 225 25 q 197 0 200 6 l 51 0 l 51 1089 l 643 1089 m 411 557 l 524 557 l 524 832 l 411 832 l 411 557 z "}}}
